<svg id="svg" xmlns="http://www.w3.org/2000/svg" xmlns:xlink="http://www.w3.org/1999/xlink" width="400" height="400" viewBox="0, 0, 400,400"><g id="svgg"><path id="path0" d="M65.449 1.687 C 49.816 6.573,37.365 20.484,33.866 36.976 C 31.569 47.799,32.052 394.109,34.368 397.416 C 38.225 402.921,42.259 401.202,59.830 386.569 C 68.699 379.181,76.953 372.603,78.172 371.951 C 80.982 370.447,81.489 370.782,100.980 387.051 C 121.233 403.955,118.931 404.047,141.236 385.443 C 150.805 377.461,159.295 370.930,160.103 370.930 C 160.910 370.930,169.425 377.471,179.024 385.465 C 201.495 404.179,198.712 404.179,221.159 385.465 C 230.747 377.471,239.278 370.930,240.116 370.930 C 240.954 370.930,249.485 377.471,259.074 385.465 C 272.953 397.037,277.226 400.000,280.031 400.000 C 287.792 400.000,287.209 414.435,287.209 222.254 C 287.209 30.839,286.859 40.489,294.234 28.995 C 299.741 20.413,310.454 13.953,319.179 13.953 C 325.404 13.953,329.523 5.569,325.349 1.395 C 323.216 -0.738,72.307 -0.456,65.449 1.687 M319.162 25.997 C 311.682 29.480,306.136 35.062,302.702 42.564 L 299.977 48.514 300.279 104.780 L 300.581 161.047 304.334 161.409 C 307.434 161.708,309.071 160.849,313.757 156.467 C 321.093 149.604,319.322 148.962,339.165 165.684 C 368.939 190.777,367.616 193.337,367.190 111.483 L 366.860 48.256 363.592 41.600 C 355.676 25.480,335.493 18.392,319.162 25.997 M164.826 68.408 C 165.625 69.400,166.299 71.289,166.324 72.606 C 166.350 74.001,167.909 75.970,170.060 77.326 C 180.786 84.084,182.575 99.798,172.485 98.631 C 169.815 98.321,168.931 97.342,167.441 93.040 C 164.284 83.923,154.497 83.556,152.821 92.493 C 151.734 98.285,154.687 101.935,162.618 104.605 C 183.046 111.481,185.527 138.658,166.285 144.765 C 165.003 145.173,163.953 146.517,163.953 147.753 C 163.953 150.419,160.030 154.651,157.558 154.651 C 154.826 154.651,151.163 150.301,151.163 147.057 C 151.163 145.152,149.733 142.860,147.107 140.554 C 139.909 134.234,138.649 122.943,144.965 121.358 C 149.059 120.331,151.436 122.028,152.641 126.840 C 155.240 137.228,167.442 135.646,167.442 124.921 C 167.442 120.421,164.872 118.000,157.462 115.519 C 139.016 109.345,134.362 87.370,149.432 77.609 C 151.647 76.174,153.466 74.061,153.474 72.912 C 153.514 67.049,161.256 63.977,164.826 68.408 M114.858 105.298 C 117.918 107.442,118.197 111.192,115.517 114.153 C 112.995 116.940,100.597 117.149,96.770 114.469 C 90.201 109.868,95.455 103.488,105.814 103.488 C 109.778 103.488,113.271 104.188,114.858 105.298 M222.997 105.298 C 229.574 109.905,224.707 116.279,214.613 116.279 C 203.622 116.279,199.020 111.445,204.651 105.814 C 207.610 102.855,219.050 102.534,222.997 105.298 M223.817 200.728 C 226.508 203.419,225.601 208.364,222.093 210.130 C 217.882 212.250,101.879 212.248,97.674 210.128 C 94.099 208.326,93.317 204.051,96.017 201.067 C 98.904 197.877,220.644 197.554,223.817 200.728 M183.920 261.227 C 186.559 263.615,186.623 266.040,184.122 268.804 C 181.379 271.835,99.025 272.115,96.013 269.103 C 93.889 266.979,93.701 264.706,95.390 261.551 C 97.117 258.325,180.376 258.019,183.920 261.227 M224.186 260.698 C 229.555 266.067,224.415 270.930,213.372 270.930 C 203.994 270.930,201.163 269.627,201.163 265.308 C 201.163 260.233,203.054 259.302,213.372 259.302 C 219.147 259.302,223.330 259.842,224.186 260.698 " stroke="none" fill="#000000" fill-rule="evenodd"></path></g></svg>