<svg id="svg" version="1.1" xmlns="http://www.w3.org/2000/svg" xmlns:xlink="http://www.w3.org/1999/xlink" width="400" height="400" viewBox="0, 0, 400,400"><g id="svgg"><path id="path0" d="M191.016 105.978 C 190.532 106.015,188.774 106.141,187.109 106.258 C 152.627 108.676,127.671 124.013,113.868 151.270 C 107.594 163.658,103.775 180.797,106.187 185.735 C 107.531 188.487,110.426 190.226,113.672 190.232 L 114.941 190.234 114.943 192.529 C 114.945 195.296,115.350 196.758,116.720 198.949 L 117.346 199.949 116.534 200.189 C 111.363 201.715,108.565 207.515,110.672 212.343 L 110.987 213.064 110.080 214.100 C 104.558 220.410,106.481 230.467,113.961 234.401 C 114.608 234.741,115.164 235.041,115.197 235.067 C 115.430 235.249,115.214 246.773,114.975 246.907 C 111.164 249.040,109.136 253.757,109.571 259.480 C 110.935 277.456,124.124 291.440,141.992 293.856 C 145.059 294.270,254.941 294.270,258.008 293.856 C 275.873 291.440,289.065 277.453,290.429 259.480 C 290.863 253.759,288.836 249.040,285.028 246.909 C 284.782 246.771,284.551 238.000,284.788 237.821 C 284.830 237.790,285.347 237.517,285.938 237.215 C 293.816 233.184,295.084 222.965,288.627 215.541 L 287.959 214.774 288.614 213.783 C 291.803 208.958,289.212 201.889,283.663 200.276 L 282.639 199.979 283.380 198.833 C 284.601 196.944,285.059 195.225,285.059 192.529 L 285.059 190.234 286.328 190.232 C 289.574 190.226,292.469 188.487,293.813 185.735 C 296.627 179.975,291.339 159.611,283.658 146.631 C 268.937 121.754,244.836 108.311,211.426 106.341 C 210.244 106.272,209.058 106.172,208.789 106.120 C 208.209 106.007,192.285 105.880,191.016 105.978 M208.789 110.823 C 209.165 110.877,210.835 111.019,212.500 111.140 C 228.931 112.330,241.705 115.915,253.239 122.573 C 272.664 133.786,285.993 153.915,289.466 177.282 C 290.276 182.738,290.015 184.175,288.037 185.133 L 287.181 185.547 200.000 185.547 L 112.819 185.547 111.963 185.133 C 110.033 184.199,109.753 182.841,110.449 177.799 C 113.094 158.644,122.953 140.849,137.589 128.811 C 150.145 118.484,167.247 112.363,187.500 110.946 C 189.165 110.830,190.879 110.704,191.309 110.666 C 192.439 110.568,207.978 110.708,208.789 110.823 M184.570 120.204 C 181.613 120.581,180.581 121.756,181.479 123.726 C 182.078 125.042,182.640 125.121,187.765 124.612 C 190.237 124.366,191.325 123.058,190.529 121.292 C 189.891 119.878,188.760 119.671,184.570 120.204 M169.473 122.861 C 152.415 127.436,139.754 136.167,130.684 149.609 C 125.598 157.147,120.783 168.213,121.728 170.193 C 122.975 172.809,125.455 171.949,126.552 168.521 C 133.211 147.721,149.113 132.986,170.996 127.336 C 174.561 126.416,175.509 125.366,174.513 123.440 C 173.820 122.101,172.760 121.979,169.473 122.861 M280.263 190.967 C 281.245 194.502,278.579 198.829,274.938 199.609 C 274.204 199.766,253.487 199.809,199.512 199.766 L 125.098 199.707 123.982 199.184 C 120.658 197.626,118.856 194.138,119.737 190.967 L 119.940 190.234 200.000 190.234 L 280.060 190.234 280.263 190.967 M282.276 204.771 C 285.306 205.852,286.303 209.448,284.216 211.763 C 282.869 213.256,282.777 213.272,275.475 213.277 C 268.345 213.282,267.680 213.367,266.370 214.451 C 265.711 214.997,263.986 217.364,255.768 229.004 C 251.345 235.269,249.946 236.328,246.097 236.328 C 241.730 236.328,241.366 235.988,232.922 224.023 C 229.624 219.351,226.529 215.155,226.045 214.700 C 224.398 213.154,229.354 213.281,170.703 213.281 L 118.234 213.281 117.175 212.744 C 113.586 210.924,113.917 206.130,117.726 204.770 C 118.816 204.381,281.186 204.382,282.276 204.771 M115.820 217.323 L 117.090 217.871 169.998 217.969 L 222.906 218.066 228.046 225.293 C 230.873 229.268,233.190 232.587,233.195 232.669 C 233.212 232.973,230.834 231.607,227.853 229.601 C 223.139 226.428,221.244 225.617,218.164 225.451 C 214.507 225.255,213.206 225.725,205.461 230.037 C 202.552 231.657,200.069 232.000,197.495 231.139 C 196.044 230.653,195.119 230.191,190.140 227.462 C 181.684 222.827,177.845 223.026,169.492 228.528 C 162.935 232.848,160.412 232.863,151.986 228.636 C 142.330 223.793,137.597 223.530,130.371 227.436 C 124.827 230.432,122.692 231.250,120.410 231.250 C 113.916 231.250,109.809 225.084,112.400 219.224 C 112.975 217.924,114.025 216.540,114.332 216.677 C 114.452 216.731,115.122 217.021,115.820 217.323 M284.770 218.297 C 289.948 224.195,288.785 231.674,282.388 233.618 C 278.985 234.651,276.001 233.781,269.050 229.730 C 267.658 228.919,265.762 227.896,264.837 227.458 L 263.155 226.660 266.261 222.314 L 269.366 217.969 275.845 217.946 C 279.409 217.933,282.588 217.855,282.910 217.773 C 283.940 217.511,284.127 217.564,284.770 218.297 M183.496 229.553 C 185.086 230.099,186.903 230.994,190.039 232.775 C 194.951 235.564,196.909 236.230,200.195 236.230 C 203.618 236.230,204.570 235.892,210.840 232.445 C 217.120 228.993,218.715 229.131,225.508 233.712 C 230.385 237.001,233.093 238.106,236.309 238.119 C 237.536 238.124,237.868 238.198,238.370 238.581 C 241.105 240.667,245.746 241.538,249.292 240.631 C 252.952 239.695,255.099 238.022,258.209 233.683 L 260.361 230.681 261.901 231.331 C 262.749 231.688,264.954 232.837,266.803 233.884 C 272.797 237.280,276.320 238.672,278.921 238.672 L 279.863 238.672 279.922 241.498 C 279.954 243.053,279.937 244.481,279.883 244.672 C 279.732 245.210,120.120 245.215,120.113 244.678 C 120.111 244.490,120.107 242.468,120.104 240.186 L 120.099 236.035 121.622 235.895 C 124.011 235.675,126.131 234.897,130.762 232.539 C 139.047 228.321,140.603 228.343,149.805 232.808 C 160.314 237.907,164.179 237.791,172.578 232.126 C 177.541 228.779,179.738 228.262,183.496 229.553 M281.293 250.230 C 284.364 251.670,285.803 254.102,285.770 257.799 C 285.628 273.415,273.571 286.914,257.758 289.162 C 254.759 289.589,145.241 289.589,142.242 289.162 C 126.429 286.914,114.372 273.415,114.230 257.799 C 114.193 253.687,116.335 250.657,119.870 249.821 C 120.295 249.721,154.324 249.660,200.391 249.677 L 280.176 249.707 281.293 250.230 " stroke="none" fill="#000000" fill-rule="evenodd"></path><path id="path1" d="M0.000 200.000 L 0.000 400.000 200.000 400.000 L 400.000 400.000 400.000 200.000 L 400.000 0.000 200.000 0.000 L 0.000 0.000 0.000 200.000 M208.789 106.120 C 209.058 106.172,210.244 106.272,211.426 106.341 C 244.836 108.311,268.937 121.754,283.658 146.631 C 291.339 159.611,296.627 179.975,293.813 185.735 C 292.469 188.487,289.574 190.226,286.328 190.232 L 285.059 190.234 285.059 192.529 C 285.059 195.225,284.601 196.944,283.380 198.833 L 282.639 199.979 283.663 200.276 C 289.212 201.889,291.803 208.958,288.614 213.783 L 287.959 214.774 288.627 215.541 C 295.084 222.965,293.816 233.184,285.938 237.215 C 285.347 237.517,284.830 237.790,284.788 237.821 C 284.551 238.000,284.782 246.771,285.028 246.909 C 288.836 249.040,290.863 253.759,290.429 259.480 C 289.065 277.453,275.873 291.440,258.008 293.856 C 254.941 294.270,145.059 294.270,141.992 293.856 C 124.124 291.440,110.935 277.456,109.571 259.480 C 109.136 253.757,111.164 249.040,114.975 246.907 C 115.214 246.773,115.430 235.249,115.197 235.067 C 115.164 235.041,114.608 234.741,113.961 234.401 C 106.481 230.467,104.558 220.410,110.080 214.100 L 110.987 213.064 110.672 212.343 C 108.565 207.515,111.363 201.715,116.534 200.189 L 117.346 199.949 116.720 198.949 C 115.350 196.758,114.945 195.296,114.943 192.529 L 114.941 190.234 113.672 190.232 C 110.426 190.226,107.531 188.487,106.187 185.735 C 103.775 180.797,107.594 163.658,113.868 151.270 C 127.671 124.013,152.627 108.676,187.109 106.258 C 188.774 106.141,190.532 106.015,191.016 105.978 C 192.285 105.880,208.209 106.007,208.789 106.120 M191.309 110.666 C 190.879 110.704,189.165 110.830,187.500 110.946 C 167.247 112.363,150.145 118.484,137.589 128.811 C 122.953 140.849,113.094 158.644,110.449 177.799 C 109.753 182.841,110.033 184.199,111.963 185.133 L 112.819 185.547 200.000 185.547 L 287.181 185.547 288.037 185.133 C 290.015 184.175,290.276 182.738,289.466 177.282 C 285.993 153.915,272.664 133.786,253.239 122.573 C 241.705 115.915,228.931 112.330,212.500 111.140 C 210.835 111.019,209.165 110.877,208.789 110.823 C 207.978 110.708,192.439 110.568,191.309 110.666 M189.622 120.201 C 191.978 121.420,190.760 124.314,187.765 124.612 C 182.640 125.121,182.078 125.042,181.479 123.726 C 180.997 122.668,181.477 120.993,182.377 120.591 C 183.559 120.064,188.810 119.781,189.622 120.201 M173.786 122.570 C 176.156 124.231,174.933 126.320,170.996 127.336 C 149.113 132.986,133.211 147.721,126.552 168.521 C 125.615 171.450,124.276 172.326,122.502 171.170 C 121.138 170.283,121.224 169.230,123.062 164.303 C 128.541 149.612,139.214 136.904,152.108 129.719 C 159.819 125.421,172.083 121.377,173.786 122.570 M119.737 190.967 C 118.856 194.138,120.658 197.626,123.982 199.184 L 125.098 199.707 199.512 199.766 C 253.487 199.809,274.204 199.766,274.938 199.609 C 278.579 198.829,281.245 194.502,280.263 190.967 L 280.060 190.234 200.000 190.234 L 119.940 190.234 119.737 190.967 M117.726 204.770 C 113.917 206.130,113.586 210.924,117.175 212.744 L 118.234 213.281 170.703 213.281 C 229.354 213.281,224.398 213.154,226.045 214.700 C 226.529 215.155,229.624 219.351,232.922 224.023 C 241.366 235.988,241.730 236.328,246.097 236.328 C 249.946 236.328,251.345 235.269,255.768 229.004 C 263.986 217.364,265.711 214.997,266.370 214.451 C 267.680 213.367,268.345 213.282,275.475 213.277 C 282.777 213.272,282.869 213.256,284.216 211.763 C 286.303 209.448,285.306 205.852,282.276 204.771 C 281.186 204.382,118.816 204.381,117.726 204.770 M113.498 217.355 C 109.680 222.176,111.831 229.040,117.731 230.862 C 120.985 231.867,123.367 231.221,130.371 227.436 C 137.597 223.530,142.330 223.793,151.986 228.636 C 160.412 232.863,162.935 232.848,169.492 228.528 C 177.845 223.026,181.684 222.827,190.140 227.462 C 195.119 230.191,196.044 230.653,197.495 231.139 C 200.069 232.000,202.552 231.657,205.461 230.037 C 213.206 225.725,214.507 225.255,218.164 225.451 C 221.244 225.617,223.139 226.428,227.853 229.601 C 230.834 231.607,233.212 232.973,233.195 232.669 C 233.190 232.587,230.873 229.268,228.046 225.293 L 222.906 218.066 169.998 217.969 L 117.090 217.871 115.820 217.323 C 115.122 217.021,114.452 216.731,114.332 216.677 C 114.212 216.623,113.836 216.928,113.498 217.355 M282.910 217.773 C 282.588 217.855,279.409 217.933,275.845 217.946 L 269.366 217.969 266.261 222.314 L 263.155 226.660 264.837 227.458 C 265.762 227.896,267.658 228.919,269.050 229.730 C 276.001 233.781,278.985 234.651,282.388 233.618 C 288.785 231.674,289.948 224.195,284.770 218.297 C 284.127 217.564,283.940 217.511,282.910 217.773 M177.981 229.194 C 176.530 229.604,175.448 230.191,172.578 232.126 C 164.179 237.791,160.314 237.907,149.805 232.808 C 140.603 228.343,139.047 228.321,130.762 232.539 C 126.131 234.897,124.011 235.675,121.622 235.895 L 120.099 236.035 120.104 240.186 C 120.107 242.468,120.111 244.490,120.113 244.678 C 120.120 245.215,279.732 245.210,279.883 244.672 C 279.937 244.481,279.954 243.053,279.922 241.498 L 279.863 238.672 278.921 238.672 C 276.320 238.672,272.797 237.280,266.803 233.884 C 264.954 232.837,262.749 231.688,261.901 231.331 L 260.361 230.681 258.209 233.683 C 255.099 238.022,252.952 239.695,249.292 240.631 C 245.746 241.538,241.105 240.667,238.370 238.581 C 237.868 238.198,237.536 238.124,236.309 238.119 C 233.093 238.106,230.385 237.001,225.508 233.712 C 218.715 229.131,217.120 228.993,210.840 232.445 C 201.447 237.608,198.629 237.653,190.039 232.775 C 183.846 229.258,180.879 228.377,177.981 229.194 M119.870 249.821 C 116.335 250.657,114.193 253.687,114.230 257.799 C 114.372 273.415,126.429 286.914,142.242 289.162 C 145.241 289.589,254.759 289.589,257.758 289.162 C 273.571 286.914,285.628 273.415,285.770 257.799 C 285.803 254.102,284.364 251.670,281.293 250.230 L 280.176 249.707 200.391 249.677 C 154.324 249.660,120.295 249.721,119.870 249.821 " stroke="none" fill="#ffffff" fill-rule="evenodd"></path></g></svg>