<svg id="svg" version="1.1" xmlns="http://www.w3.org/2000/svg" xmlns:xlink="http://www.w3.org/1999/xlink" width="400" height="400" viewBox="0, 0, 400,400"><g id="svgg"><path id="path0" d="M196.563 100.126 C 168.970 102.260,147.806 121.610,143.494 148.646 C 142.882 152.485,142.668 171.623,143.225 172.700 C 143.918 174.041,141.449 173.958,180.983 173.959 C 221.645 173.959,217.990 173.799,218.906 175.617 C 219.362 176.520,219.375 176.727,219.375 182.859 C 219.375 186.332,219.460 189.335,219.564 189.534 C 219.668 189.733,219.859 190.293,219.988 190.779 C 220.456 192.533,222.800 193.313,224.377 192.240 C 225.980 191.149,225.925 191.443,226.042 183.257 C 226.190 172.803,224.252 173.960,241.621 173.959 C 256.014 173.958,255.996 173.960,256.744 172.892 C 257.151 172.310,257.249 155.450,256.867 151.637 C 253.825 121.278,226.362 97.820,196.563 100.126 M150.625 180.621 C 150.625 180.733,153.521 187.788,157.060 196.298 C 160.600 204.808,166.611 219.271,170.420 228.438 C 174.228 237.604,179.780 250.964,182.758 258.125 C 185.735 265.286,188.479 271.896,188.853 272.813 C 189.747 274.997,193.558 284.169,194.567 286.563 C 195.001 287.594,196.418 290.992,197.714 294.115 C 199.011 297.237,200.126 299.790,200.192 299.789 C 200.258 299.787,201.335 297.326,202.584 294.320 C 203.833 291.314,205.721 286.792,206.778 284.271 C 207.836 281.750,211.346 273.359,214.579 265.625 C 217.812 257.891,221.519 249.031,222.816 245.938 C 237.879 210.012,249.870 181.264,249.950 180.885 L 250.049 180.417 241.483 180.417 L 232.917 180.417 232.917 185.406 C 232.917 192.230,232.568 193.590,230.160 196.164 C 225.402 201.250,217.425 199.971,214.456 193.646 C 213.556 191.728,213.333 189.949,213.333 184.672 L 213.333 180.417 181.979 180.417 C 161.652 180.417,150.625 180.488,150.625 180.621 " stroke="none" fill="#000000" fill-rule="evenodd"></path><path id="path1" d="M0.000 200.000 L 0.000 400.000 200.000 400.000 L 400.000 400.000 400.000 200.000 L 400.000 0.000 200.000 0.000 L 0.000 0.000 0.000 200.000 M207.280 100.537 C 233.668 103.997,254.214 125.169,256.867 151.637 C 257.249 155.450,257.151 172.310,256.744 172.892 C 255.996 173.960,256.014 173.958,241.621 173.959 C 224.252 173.960,226.190 172.803,226.042 183.257 C 225.925 191.443,225.980 191.149,224.377 192.240 C 222.800 193.313,220.456 192.533,219.988 190.779 C 219.859 190.293,219.668 189.733,219.564 189.534 C 219.460 189.335,219.375 186.332,219.375 182.859 C 219.375 176.727,219.362 176.520,218.906 175.617 C 217.990 173.799,221.645 173.959,180.983 173.959 C 141.449 173.958,143.918 174.041,143.225 172.700 C 142.668 171.623,142.882 152.485,143.494 148.646 C 147.806 121.610,168.970 102.260,196.563 100.126 C 198.492 99.976,204.870 100.221,207.280 100.537 M213.333 184.672 C 213.333 189.949,213.556 191.728,214.456 193.646 C 217.425 199.971,225.402 201.250,230.160 196.164 C 232.568 193.590,232.917 192.230,232.917 185.406 L 232.917 180.417 241.483 180.417 L 250.049 180.417 249.950 180.885 C 249.870 181.264,237.879 210.012,222.816 245.938 C 221.519 249.031,217.812 257.891,214.579 265.625 C 211.346 273.359,207.836 281.750,206.778 284.271 C 205.721 286.792,203.833 291.314,202.584 294.320 C 201.335 297.326,200.258 299.787,200.192 299.789 C 200.126 299.790,199.011 297.237,197.714 294.115 C 196.418 290.992,195.001 287.594,194.567 286.563 C 193.558 284.169,189.747 274.997,188.853 272.813 C 188.479 271.896,185.735 265.286,182.758 258.125 C 179.780 250.964,174.228 237.604,170.420 228.438 C 166.611 219.271,160.600 204.808,157.060 196.298 C 153.521 187.788,150.625 180.733,150.625 180.621 C 150.625 180.488,161.652 180.417,181.979 180.417 L 213.333 180.417 213.333 184.672 " stroke="none" fill="#ffffff" fill-rule="evenodd"></path></g></svg>