<svg id="svg" xmlns="http://www.w3.org/2000/svg" xmlns:xlink="http://www.w3.org/1999/xlink" width="400" height="400" viewBox="0, 0, 400,400"><g id="svgg"><path id="path0" d="M303.766 58.366 C 300.931 61.289,298.596 63.680,298.576 63.680 C 298.557 63.680,298.043 63.520,297.435 63.324 C 292.614 61.771,286.968 62.032,282.440 64.016 C 272.948 68.175,270.039 78.418,276.358 85.426 L 276.887 86.013 276.586 86.346 C 276.421 86.530,273.375 89.677,269.817 93.340 L 263.348 100.000 174.274 100.020 L 85.200 100.040 135.280 155.186 L 185.360 210.333 185.360 270.165 L 185.360 329.997 167.820 330.021 L 150.280 330.045 149.600 330.215 C 138.115 333.085,138.345 349.142,149.905 351.498 C 151.002 351.722,247.012 351.718,248.120 351.495 C 254.488 350.211,258.311 343.942,256.521 337.720 C 255.395 333.805,251.862 330.739,247.760 330.116 C 247.114 330.018,244.202 330.001,228.420 330.000 L 209.840 330.000 209.840 271.205 L 209.840 212.411 260.864 156.225 L 311.887 100.040 292.912 100.000 L 273.937 99.960 278.686 95.069 L 283.435 90.178 283.977 90.376 C 288.126 91.888,293.799 91.856,298.080 90.296 C 308.443 86.522,312.031 76.089,305.564 68.537 L 305.031 67.915 308.969 63.857 C 311.135 61.626,313.233 59.468,313.630 59.062 L 314.352 58.325 312.476 56.505 C 311.444 55.504,310.222 54.318,309.760 53.868 L 308.920 53.051 303.766 58.366 M253.429 110.220 C 253.007 110.649,247.248 116.580,240.631 123.400 L 228.600 135.800 186.263 135.840 L 143.925 135.880 162.249 158.000 C 172.327 170.166,184.607 184.990,189.538 190.943 C 194.470 196.895,198.532 201.755,198.565 201.743 C 198.598 201.730,211.108 186.906,226.365 168.800 L 254.104 135.880 246.646 135.860 C 242.517 135.848,239.199 135.808,239.213 135.770 C 239.228 135.732,244.976 129.793,251.988 122.571 L 264.735 109.440 277.662 109.440 L 290.588 109.440 290.421 109.620 C 290.330 109.719,270.037 132.064,245.327 159.275 L 200.400 208.751 200.420 274.075 L 200.440 339.400 223.520 339.440 C 240.866 339.470,246.640 339.503,246.760 339.573 C 247.802 340.180,247.772 341.540,246.703 342.088 C 246.243 342.324,151.833 342.324,151.314 342.088 C 150.313 341.634,150.223 340.331,151.146 339.647 L 151.372 339.480 173.066 339.440 L 194.760 339.400 194.780 273.036 L 194.800 206.673 150.680 158.089 C 126.414 131.368,106.560 109.491,106.560 109.473 C 106.560 109.455,139.778 109.440,180.378 109.440 L 254.197 109.440 253.429 110.220 " stroke="none" fill="#000000" fill-rule="evenodd"></path></g></svg>