<svg id="svg" version="1.1" xmlns="http://www.w3.org/2000/svg" xmlns:xlink="http://www.w3.org/1999/xlink" width="400" height="400" viewBox="0, 0, 400,400"><g id="svgg"><path id="path0" d="M308.285 53.713 C 308.029 54.009,305.742 56.369,303.202 58.960 L 298.583 63.669 297.290 63.264 C 286.778 59.967,275.136 65.428,273.264 74.535 C 272.484 78.329,273.720 82.662,276.380 85.455 L 276.892 85.993 275.826 87.122 C 275.240 87.742,272.208 90.875,269.088 94.083 L 263.417 99.917 174.319 100.000 L 85.221 100.083 89.402 104.675 C 91.702 107.201,97.558 113.646,102.417 118.998 C 107.275 124.350,115.445 133.346,120.571 138.990 C 125.698 144.633,132.445 152.063,135.565 155.500 C 143.814 164.589,149.637 171.002,158.268 180.502 C 162.475 185.132,168.877 192.182,172.495 196.169 C 176.114 200.155,180.482 204.967,182.204 206.862 L 185.333 210.308 185.333 270.154 L 185.333 330.000 167.943 330.000 C 146.806 330.000,147.603 329.891,144.245 333.246 C 138.237 339.248,141.308 349.660,149.605 351.418 C 151.337 351.785,246.663 351.784,248.417 351.417 C 258.973 349.208,259.937 334.526,249.783 330.610 L 248.417 330.083 229.167 330.000 L 209.917 329.917 209.876 271.167 L 209.835 212.417 215.376 206.322 C 218.423 202.971,223.804 197.046,227.333 193.157 C 236.943 182.568,242.138 176.847,244.500 174.250 C 247.794 170.631,261.052 156.032,270.082 146.081 C 279.328 135.893,280.986 134.068,284.081 130.667 C 290.552 123.557,296.524 116.984,297.333 116.082 C 297.837 115.520,300.387 112.708,303.000 109.834 C 305.612 106.959,308.670 103.589,309.795 102.345 L 311.840 100.083 292.935 100.000 L 274.030 99.917 275.631 98.250 C 276.511 97.333,278.630 95.139,280.339 93.375 L 283.446 90.166 284.376 90.486 C 288.273 91.827,293.619 91.783,297.827 90.377 C 308.013 86.973,311.981 76.391,305.875 68.917 L 305.059 67.917 309.710 63.125 L 314.362 58.333 311.744 55.792 C 308.779 52.914,308.910 52.993,308.285 53.713 M253.575 110.042 C 253.308 110.340,251.810 111.896,250.248 113.500 C 247.234 116.594,239.624 124.440,232.747 131.541 L 228.592 135.833 186.281 135.875 L 143.970 135.917 145.693 138.017 C 146.641 139.172,149.554 142.690,152.167 145.834 C 154.779 148.979,157.602 152.384,158.440 153.401 C 159.278 154.418,161.866 157.546,164.190 160.351 C 166.515 163.157,173.440 171.520,179.580 178.935 C 185.720 186.350,192.245 194.220,194.080 196.425 C 195.915 198.630,197.652 200.727,197.939 201.086 C 198.600 201.912,198.055 202.419,203.653 195.767 C 206.206 192.733,209.150 189.237,210.194 188.000 C 211.239 186.762,212.914 184.775,213.918 183.583 C 219.757 176.647,228.548 166.213,230.488 163.917 C 231.727 162.450,233.342 160.532,234.078 159.654 C 236.483 156.785,252.089 138.278,253.057 137.148 C 253.576 136.542,254.000 135.998,254.000 135.940 C 254.000 135.881,250.654 135.833,246.565 135.833 L 239.130 135.833 241.273 133.614 C 247.427 127.243,260.040 114.263,262.237 112.040 L 264.750 109.496 277.608 109.540 L 290.466 109.583 283.046 117.750 C 278.965 122.242,274.678 126.958,273.521 128.231 C 272.364 129.504,270.967 131.047,270.417 131.660 C 269.867 132.273,267.203 135.206,264.496 138.179 C 261.790 141.151,256.653 146.805,253.080 150.743 C 236.714 168.780,234.490 171.231,232.423 173.500 C 231.213 174.829,229.029 177.232,227.570 178.839 C 226.110 180.447,223.492 183.329,221.750 185.245 C 214.279 193.462,211.432 196.597,206.123 202.449 L 200.500 208.648 200.500 273.988 L 200.500 339.329 223.598 339.373 L 246.696 339.417 247.098 339.884 C 247.623 340.495,247.621 341.228,247.091 341.758 L 246.682 342.167 199.000 342.167 L 151.318 342.167 150.909 341.758 C 150.474 341.322,150.385 340.694,150.680 340.142 C 151.125 339.310,150.459 339.333,173.411 339.333 L 194.833 339.333 194.833 273.016 L 194.833 206.699 188.875 200.153 C 185.598 196.552,182.542 193.183,182.083 192.665 C 180.893 191.320,173.443 183.123,172.239 181.833 C 171.682 181.237,168.646 177.900,165.492 174.417 C 157.506 165.599,150.509 157.887,146.673 153.674 C 144.882 151.708,142.668 149.270,141.752 148.258 C 140.038 146.362,136.446 142.409,132.583 138.167 C 131.373 136.837,126.572 131.550,121.915 126.417 C 117.258 121.283,112.053 115.555,110.349 113.687 C 108.644 111.820,107.112 110.114,106.944 109.896 L 106.639 109.500 180.351 109.500 L 254.062 109.500 253.575 110.042 " stroke="none" fill="#000000" fill-rule="evenodd"></path><path id="path1" d="M0.000 200.000 L 0.000 400.000 200.000 400.000 L 400.000 400.000 400.000 200.000 L 400.000 0.000 200.000 0.000 L 0.000 0.000 0.000 200.000 M311.744 55.792 L 314.362 58.333 309.710 63.125 L 305.059 67.917 305.875 68.917 C 311.981 76.391,308.013 86.973,297.827 90.377 C 293.619 91.783,288.273 91.827,284.376 90.486 L 283.446 90.166 280.339 93.375 C 278.630 95.139,276.511 97.333,275.631 98.250 L 274.030 99.917 292.935 100.000 L 311.840 100.083 309.795 102.345 C 308.670 103.589,305.612 106.959,303.000 109.834 C 300.387 112.708,297.837 115.520,297.333 116.082 C 296.524 116.984,290.552 123.557,284.081 130.667 C 280.986 134.068,279.328 135.893,270.082 146.081 C 261.052 156.032,247.794 170.631,244.500 174.250 C 242.138 176.847,236.943 182.568,227.333 193.157 C 223.804 197.046,218.423 202.971,215.376 206.322 L 209.835 212.417 209.876 271.167 L 209.917 329.917 229.167 330.000 L 248.417 330.083 249.783 330.610 C 259.937 334.526,258.973 349.208,248.417 351.417 C 246.663 351.784,151.337 351.785,149.605 351.418 C 141.308 349.660,138.237 339.248,144.245 333.246 C 147.603 329.891,146.806 330.000,167.943 330.000 L 185.333 330.000 185.333 270.154 L 185.333 210.308 182.204 206.862 C 180.482 204.967,176.114 200.155,172.495 196.169 C 168.877 192.182,162.475 185.132,158.268 180.502 C 149.637 171.002,143.814 164.589,135.565 155.500 C 132.445 152.063,125.698 144.633,120.571 138.990 C 115.445 133.346,107.275 124.350,102.417 118.998 C 97.558 113.646,91.702 107.201,89.402 104.675 L 85.221 100.083 174.319 100.000 L 263.417 99.917 269.088 94.083 C 272.208 90.875,275.240 87.742,275.826 87.122 L 276.892 85.993 276.380 85.455 C 273.720 82.662,272.484 78.329,273.264 74.535 C 275.136 65.428,286.778 59.967,297.290 63.264 L 298.583 63.669 303.202 58.960 C 305.742 56.369,308.029 54.009,308.285 53.713 C 308.910 52.993,308.779 52.914,311.744 55.792 M106.944 109.896 C 107.112 110.114,108.644 111.820,110.349 113.687 C 112.053 115.555,117.258 121.283,121.915 126.417 C 126.572 131.550,131.373 136.837,132.583 138.167 C 136.446 142.409,140.038 146.362,141.752 148.258 C 142.668 149.270,144.882 151.708,146.673 153.674 C 150.509 157.887,157.506 165.599,165.492 174.417 C 168.646 177.900,171.682 181.237,172.239 181.833 C 173.443 183.123,180.893 191.320,182.083 192.665 C 182.542 193.183,185.598 196.552,188.875 200.153 L 194.833 206.699 194.833 273.016 L 194.833 339.333 173.411 339.333 C 150.459 339.333,151.125 339.310,150.680 340.142 C 150.385 340.694,150.474 341.322,150.909 341.758 L 151.318 342.167 199.000 342.167 L 246.682 342.167 247.091 341.758 C 247.621 341.228,247.623 340.495,247.098 339.884 L 246.696 339.417 223.598 339.373 L 200.500 339.329 200.500 273.988 L 200.500 208.648 206.123 202.449 C 211.432 196.597,214.279 193.462,221.750 185.245 C 223.492 183.329,226.110 180.447,227.570 178.839 C 229.029 177.232,231.213 174.829,232.423 173.500 C 234.490 171.231,236.714 168.780,253.080 150.743 C 256.653 146.805,261.790 141.151,264.496 138.179 C 267.203 135.206,269.867 132.273,270.417 131.660 C 270.967 131.047,272.364 129.504,273.521 128.231 C 274.678 126.958,278.965 122.242,283.046 117.750 L 290.466 109.583 277.608 109.540 L 264.750 109.496 262.237 112.040 C 260.040 114.263,247.427 127.243,241.273 133.614 L 239.130 135.833 246.565 135.833 C 250.654 135.833,254.000 135.881,254.000 135.940 C 254.000 135.998,253.576 136.542,253.057 137.148 C 252.089 138.278,236.483 156.785,234.078 159.654 C 233.342 160.532,231.727 162.450,230.488 163.917 C 228.548 166.213,219.757 176.647,213.918 183.583 C 212.914 184.775,211.239 186.762,210.194 188.000 C 209.150 189.237,206.206 192.733,203.653 195.767 C 198.055 202.419,198.600 201.912,197.939 201.086 C 197.652 200.727,195.915 198.630,194.080 196.425 C 192.245 194.220,185.720 186.350,179.580 178.935 C 173.440 171.520,166.515 163.157,164.190 160.351 C 161.866 157.546,159.278 154.418,158.440 153.401 C 157.602 152.384,154.779 148.979,152.167 145.834 C 149.554 142.690,146.641 139.172,145.693 138.017 L 143.970 135.917 186.281 135.875 L 228.592 135.833 232.747 131.541 C 239.624 124.440,247.234 116.594,250.248 113.500 C 251.810 111.896,253.308 110.340,253.575 110.042 L 254.062 109.500 180.351 109.500 L 106.639 109.500 106.944 109.896 " stroke="none" fill="#ffffff" fill-rule="evenodd"></path></g></svg>