<svg id="svg" xmlns="http://www.w3.org/2000/svg" xmlns:xlink="http://www.w3.org/1999/xlink" width="400" height="400" viewBox="0, 0, 400,400"><g id="svgg"><path id="path0" d="M59.691 77.286 C 59.583 77.460,59.368 85.016,58.425 121.771 C 58.258 128.293,58.182 128.542,56.373 128.542 C 55.927 128.542,55.536 128.370,55.223 128.036 L 54.748 127.531 54.093 102.672 L 53.438 77.813 51.960 77.752 C 50.100 77.676,50.083 77.697,49.806 80.421 C 47.135 106.752,45.596 139.093,46.635 147.061 C 47.238 151.681,48.830 154.148,56.125 161.771 C 57.989 163.719,59.636 165.540,59.784 165.818 C 60.047 166.311,60.021 170.123,59.685 179.896 C 59.574 183.140,59.488 185.961,58.959 203.750 C 58.736 211.255,58.503 219.036,58.441 221.042 C 58.379 223.047,58.142 231.063,57.913 238.854 C 56.860 274.759,56.671 281.140,56.571 284.063 C 55.724 309.023,55.561 317.828,55.916 319.418 C 58.006 328.779,68.888 330.734,73.202 322.525 C 74.849 319.390,74.819 320.311,74.074 296.094 C 73.789 286.841,73.505 277.583,73.442 275.521 C 73.306 271.054,72.666 249.386,72.087 229.688 C 71.859 221.896,71.620 213.880,71.557 211.875 C 71.495 209.870,71.215 200.589,70.937 191.250 C 70.658 181.911,70.372 172.536,70.302 170.417 C 70.143 165.614,69.992 165.989,73.522 162.398 C 83.645 152.100,83.961 151.322,83.955 136.697 C 83.953 130.044,83.869 127.140,83.430 118.438 C 82.829 106.545,80.486 78.319,80.065 77.898 C 79.956 77.790,79.218 77.679,78.424 77.653 L 76.981 77.604 76.847 79.167 C 76.774 80.026,76.656 83.495,76.586 86.875 C 76.299 100.690,75.601 126.803,75.507 127.245 C 75.227 128.562,73.437 129.019,72.493 128.013 C 72.001 127.490,71.995 127.429,71.849 121.399 C 71.767 118.051,71.649 113.250,71.586 110.729 C 71.522 108.208,71.314 99.724,71.123 91.875 C 70.737 76.052,70.867 77.037,69.185 77.126 L 68.021 77.188 67.882 81.146 C 67.806 83.323,67.642 92.229,67.517 100.938 C 67.393 109.646,67.230 119.160,67.155 122.080 L 67.018 127.389 66.442 127.965 C 65.323 129.084,63.495 128.442,63.256 126.846 C 63.143 126.089,62.484 86.609,62.494 81.184 C 62.501 77.198,62.458 77.083,60.942 77.083 C 60.323 77.083,59.760 77.175,59.691 77.286 M342.708 77.278 C 333.245 80.167,328.017 106.158,325.796 161.354 C 325.440 170.203,325.438 199.862,325.793 203.229 C 326.442 209.371,328.241 213.007,331.684 215.132 L 332.917 215.893 332.917 217.894 C 332.917 218.995,332.822 223.271,332.706 227.396 C 332.590 231.521,332.311 241.880,332.085 250.417 C 331.605 268.568,331.606 268.536,330.920 293.390 C 330.320 315.125,330.292 314.437,331.886 317.667 C 335.271 324.528,343.402 324.715,346.912 318.012 C 348.684 314.629,348.659 315.336,347.935 289.167 C 347.696 280.516,347.315 266.313,347.087 257.604 C 346.860 248.896,346.629 240.365,346.574 238.646 C 346.519 236.927,346.360 230.899,346.221 225.250 L 345.967 214.979 346.968 214.019 C 347.519 213.492,348.215 212.535,348.516 211.894 L 349.063 210.729 349.009 172.604 C 348.940 123.211,348.624 81.222,348.313 80.104 C 347.734 78.023,344.919 76.603,342.708 77.278 M193.958 91.574 C 133.651 96.564,89.643 150.441,96.887 210.417 C 103.353 263.956,148.694 304.163,202.604 304.163 C 261.412 304.163,309.000 256.549,309.000 197.708 C 309.000 135.453,255.885 86.451,193.958 91.574 M210.000 125.422 C 250.210 129.571,279.724 166.427,274.736 206.262 C 268.444 256.503,214.978 285.151,169.786 262.497 C 137.636 246.381,122.145 208.300,133.857 174.177 C 143.506 146.063,168.816 126.962,198.854 125.124 C 200.780 125.007,207.788 125.194,210.000 125.422 M198.229 129.083 C 192.201 129.690,190.335 129.984,186.304 130.961 C 142.637 141.539,120.740 190.943,142.205 230.459 C 164.368 271.260,219.756 278.746,252.059 245.306 C 275.749 220.782,277.740 181.815,256.660 155.287 C 245.172 140.831,229.417 131.936,210.938 129.475 C 208.568 129.159,200.071 128.897,198.229 129.083 " stroke="none" fill="#000000" fill-rule="evenodd"></path></g></svg>