<svg id="svg" xmlns="http://www.w3.org/2000/svg" xmlns:xlink="http://www.w3.org/1999/xlink" width="400" height="400" viewBox="0, 0, 400,400"><g id="svgg"><path id="path0" d="M114.583 63.630 C 101.527 66.045,92.181 82.174,89.464 106.979 C 86.852 130.828,91.939 143.631,108.402 154.647 C 112.839 157.616,112.414 155.832,111.998 169.713 C 111.817 175.772,111.617 182.464,111.553 184.583 C 111.366 190.852,110.234 229.230,109.897 240.729 C 109.726 246.573,109.491 254.589,109.375 258.542 C 109.170 265.478,108.681 282.336,108.434 290.938 C 108.369 293.229,108.181 299.510,108.018 304.896 C 107.416 324.761,107.409 325.941,107.890 327.762 C 111.225 340.382,126.235 339.261,128.126 326.250 C 128.260 325.329,128.192 320.432,127.914 310.938 C 127.532 297.936,126.806 272.871,126.562 264.271 C 126.504 262.208,126.407 258.927,126.347 256.979 C 126.288 255.031,126.057 247.109,125.834 239.375 C 125.610 231.641,125.376 223.625,125.312 221.563 C 125.249 219.500,125.058 213.031,124.888 207.188 C 124.718 201.344,124.347 188.922,124.062 179.583 C 123.298 154.551,122.962 157.537,126.824 155.063 C 137.544 148.197,144.757 138.664,146.340 129.271 C 148.531 116.262,146.277 96.542,141.112 83.542 C 135.331 68.989,125.501 61.611,114.583 63.630 M215.798 63.818 C 204.907 68.399,197.954 98.432,195.314 152.292 C 194.373 171.503,194.370 199.073,195.309 204.909 C 196.143 210.092,198.495 213.610,202.459 215.605 C 204.785 216.775,204.896 216.941,204.896 219.240 C 204.896 221.489,204.623 231.409,204.471 234.688 C 204.413 235.948,204.228 241.292,204.060 246.563 C 203.682 258.448,203.566 261.993,203.432 265.833 C 203.373 267.495,203.140 274.667,202.913 281.771 C 202.686 288.875,202.266 301.859,201.981 310.625 C 201.512 325.000,201.492 326.705,201.770 328.021 C 204.166 339.359,219.257 339.539,222.013 328.262 C 222.360 326.840,222.264 321.352,221.552 301.979 C 221.497 300.490,221.360 296.411,221.247 292.917 C 220.821 279.685,220.188 260.597,219.463 239.063 C 218.623 214.131,218.568 216.079,220.148 215.000 C 221.837 213.848,222.744 212.625,223.111 211.011 C 223.389 209.783,222.691 73.900,222.375 67.969 C 222.157 63.875,219.560 62.235,215.798 63.818 M284.517 63.490 C 284.381 63.722,283.995 77.317,283.423 101.979 C 283.032 118.864,283.065 118.253,282.522 118.831 C 281.611 119.801,280.164 119.721,279.471 118.662 C 279.122 118.130,278.997 114.837,278.446 91.771 C 278.068 75.965,277.713 64.343,277.601 64.162 C 277.417 63.864,274.727 63.910,274.318 64.219 C 274.032 64.434,273.863 65.693,273.347 71.458 C 269.656 112.664,268.875 137.388,271.079 143.281 C 272.186 146.243,275.122 149.982,281.505 156.560 C 284.946 160.106,285.030 160.268,284.902 163.125 C 284.847 164.328,284.751 167.234,284.687 169.583 C 284.573 173.802,283.660 204.394,283.438 211.458 C 283.374 213.464,283.137 221.479,282.910 229.271 C 282.484 243.892,281.758 268.429,281.552 275.208 C 279.902 329.404,279.945 326.495,280.744 328.880 C 284.380 339.743,297.896 338.961,300.553 327.734 C 300.865 326.417,300.845 317.231,300.519 311.771 C 300.471 310.969,300.379 308.203,300.314 305.625 C 300.250 303.047,299.828 288.797,299.378 273.958 C 298.927 259.120,298.507 245.151,298.443 242.917 C 298.380 240.682,298.281 237.542,298.225 235.938 C 298.168 234.333,297.980 228.146,297.809 222.188 C 297.241 202.498,296.679 183.486,296.567 180.208 C 296.072 165.653,296.001 161.068,296.256 160.286 C 296.450 159.695,297.473 158.506,300.088 155.833 C 306.304 149.482,308.954 146.061,309.988 143.056 C 312.002 137.202,311.275 112.532,308.010 75.938 C 307.724 72.729,307.384 68.859,307.253 67.338 C 306.966 63.983,306.986 64.013,304.959 63.835 C 302.957 63.660,303.226 61.707,302.818 79.375 C 302.631 87.453,302.342 99.125,302.177 105.313 C 302.011 111.500,301.876 116.947,301.876 117.417 C 301.875 118.995,300.479 119.929,299.099 119.274 C 297.817 118.666,298.027 122.488,297.073 82.396 C 296.836 72.427,296.599 64.060,296.546 63.802 C 296.446 63.312,293.942 63.062,293.663 63.514 C 293.529 63.730,293.416 68.910,292.930 96.933 L 292.562 118.136 292.094 118.635 C 290.991 119.809,289.244 119.649,288.618 118.316 C 288.454 117.968,288.276 111.604,288.040 97.708 C 287.853 86.651,287.647 74.510,287.582 70.729 C 287.518 66.948,287.430 63.737,287.385 63.594 C 287.297 63.308,284.678 63.213,284.517 63.490 " stroke="none" fill="#000000" fill-rule="evenodd"></path></g></svg>