<svg id="svg" xmlns="http://www.w3.org/2000/svg" xmlns:xlink="http://www.w3.org/1999/xlink" width="400" height="400" viewBox="0, 0, 400,400"><g id="svgg"><path id="path0" d="M174.569 78.815 C 153.037 80.576,134.219 95.846,127.840 116.735 C 115.230 158.033,154.401 212.651,219.234 244.169 C 221.844 245.437,224.338 246.932,224.778 247.491 L 225.577 248.506 228.388 246.075 C 229.935 244.738,231.665 243.543,232.233 243.421 C 232.801 243.298,233.489 243.129,233.763 243.045 C 234.037 242.961,235.873 243.157,237.845 243.480 C 243.230 244.363,242.910 244.514,241.955 241.531 C 241.175 239.091,241.159 238.542,241.593 228.980 C 242.763 203.205,241.871 173.112,239.349 153.290 C 238.609 147.475,238.833 147.917,236.434 147.561 C 223.024 145.569,212.564 132.314,213.160 118.069 C 213.328 114.057,213.296 113.857,212.337 112.967 C 206.302 107.361,203.350 96.960,205.496 88.858 C 205.840 87.556,206.122 86.318,206.122 86.107 C 206.122 85.505,199.333 82.250,195.663 81.092 C 189.028 78.998,181.827 78.221,174.569 78.815 M135.825 129.799 C 138.126 159.501,158.426 190.707,191.633 215.586 C 196.128 218.955,197.289 220.292,196.069 220.698 C 195.815 220.783,193.336 219.159,190.559 217.091 C 164.333 197.552,146.301 174.476,138.134 150.000 C 135.521 142.168,133.372 130.773,134.133 128.789 C 134.591 127.596,135.706 128.262,135.825 129.799 M231.019 250.727 C 227.548 253.782,227.447 252.453,231.884 262.167 L 235.605 270.313 234.231 271.380 C 219.150 283.085,232.057 306.436,249.488 298.984 C 253.502 297.268,254.339 294.739,252.910 288.644 C 251.667 283.338,251.547 283.449,255.178 286.536 C 261.287 291.731,265.126 291.820,270.212 286.884 C 281.441 275.986,269.301 257.196,254.527 262.608 C 252.138 263.483,252.743 264.205,248.935 255.935 L 246.217 250.034 241.374 249.335 C 238.710 248.950,235.933 248.540,235.203 248.425 C 234.027 248.238,233.547 248.503,231.019 250.727 " stroke="none" fill="#000000" fill-rule="evenodd"></path></g></svg>