<svg id="svg" version="1.1" xmlns="http://www.w3.org/2000/svg" xmlns:xlink="http://www.w3.org/1999/xlink" width="400" height="400" viewBox="0, 0, 400,400"><g id="svgg"><path id="path0" d="M172.813 78.864 C 158.662 80.736,145.708 88.012,136.849 99.064 C 125.470 113.257,122.274 134.261,128.543 153.646 C 139.592 187.811,172.748 221.198,217.854 243.579 C 222.750 246.008,223.871 246.647,224.577 247.414 C 225.683 248.613,225.561 248.652,228.331 246.210 C 232.046 242.933,232.667 242.777,238.483 243.648 C 243.310 244.370,243.069 244.489,242.167 241.833 C 241.202 238.994,241.146 238.030,241.542 231.042 C 243.096 203.612,242.188 173.754,239.088 150.380 C 238.750 147.832,238.700 147.708,238.005 147.708 C 235.895 147.708,230.535 145.937,227.629 144.279 C 217.507 138.505,211.686 126.776,213.359 115.525 L 213.593 113.950 211.797 112.087 C 205.482 105.536,203.271 96.490,205.856 87.783 C 206.455 85.765,206.496 85.822,203.199 84.146 C 194.004 79.472,182.860 77.535,172.813 78.864 M135.659 128.958 C 135.739 129.245,135.908 130.775,136.033 132.358 C 138.293 160.939,161.429 194.486,195.465 218.535 C 196.576 219.320,196.865 219.891,196.393 220.363 C 195.872 220.884,195.300 220.571,191.250 217.539 C 164.657 197.631,146.759 175.020,138.450 150.834 C 135.474 142.170,133.231 129.769,134.425 128.575 C 134.828 128.172,135.496 128.379,135.659 128.958 M230.760 250.866 C 229.196 252.260,227.917 253.467,227.917 253.549 C 227.917 253.632,229.604 257.378,231.667 261.875 C 233.729 266.372,235.417 270.129,235.417 270.224 C 235.417 270.320,234.663 270.972,233.742 271.673 C 220.032 282.109,230.377 304.180,246.979 299.915 C 253.315 298.288,254.685 295.597,252.917 288.255 C 252.017 284.517,251.993 284.375,252.264 284.375 C 252.364 284.375,253.747 285.468,255.337 286.805 C 260.978 291.544,264.484 291.853,269.168 288.023 C 282.068 277.474,270.620 257.186,254.764 262.498 C 253.708 262.852,252.714 263.114,252.555 263.081 C 252.396 263.048,250.956 260.163,249.355 256.669 C 247.753 253.176,246.362 250.237,246.263 250.138 C 246.048 249.923,235.688 248.344,234.458 248.338 C 233.658 248.334,233.421 248.496,230.760 250.866 " stroke="none" fill="#000000" fill-rule="evenodd"></path><path id="path1" d="M0.000 200.000 L 0.000 400.000 200.000 400.000 L 400.000 400.000 400.000 200.000 L 400.000 0.000 200.000 0.000 L 0.000 0.000 0.000 200.000 M185.841 78.839 C 192.108 79.619,197.590 81.295,203.199 84.146 C 206.496 85.822,206.455 85.765,205.856 87.783 C 203.271 96.490,205.482 105.536,211.797 112.087 L 213.593 113.950 213.359 115.525 C 211.686 126.776,217.507 138.505,227.629 144.279 C 230.535 145.937,235.895 147.708,238.005 147.708 C 238.700 147.708,238.750 147.832,239.088 150.380 C 242.188 173.754,243.096 203.612,241.542 231.042 C 241.146 238.030,241.202 238.994,242.167 241.833 C 243.069 244.489,243.310 244.370,238.483 243.648 C 232.667 242.777,232.046 242.933,228.331 246.210 C 225.561 248.652,225.683 248.613,224.577 247.414 C 223.871 246.647,222.750 246.008,217.854 243.579 C 172.748 221.198,139.592 187.811,128.543 153.646 C 124.311 140.561,124.320 126.552,128.567 114.220 C 136.580 90.952,161.160 75.768,185.841 78.839 M134.425 128.575 C 133.231 129.769,135.474 142.170,138.450 150.834 C 146.759 175.020,164.657 197.631,191.250 217.539 C 195.300 220.571,195.872 220.884,196.393 220.363 C 196.865 219.891,196.576 219.320,195.465 218.535 C 161.429 194.486,138.293 160.939,136.033 132.358 C 135.725 128.471,135.368 127.632,134.425 128.575 M240.698 249.150 C 243.659 249.594,246.164 250.039,246.263 250.138 C 246.362 250.237,247.753 253.176,249.355 256.669 C 250.956 260.163,252.396 263.048,252.555 263.081 C 252.714 263.114,253.708 262.852,254.764 262.498 C 270.620 257.186,282.068 277.474,269.168 288.023 C 264.484 291.853,260.978 291.544,255.337 286.805 C 253.747 285.468,252.364 284.375,252.264 284.375 C 251.993 284.375,252.017 284.517,252.917 288.255 C 254.685 295.597,253.315 298.288,246.979 299.915 C 230.377 304.180,220.032 282.109,233.742 271.673 C 234.663 270.972,235.417 270.320,235.417 270.224 C 235.417 270.129,233.729 266.372,231.667 261.875 C 229.604 257.378,227.917 253.632,227.917 253.549 C 227.917 253.467,229.196 252.260,230.760 250.866 C 234.147 247.849,233.162 248.019,240.698 249.150 " stroke="none" fill="#ffffff" fill-rule="evenodd"></path></g></svg>