<svg id="svg" xmlns="http://www.w3.org/2000/svg" xmlns:xlink="http://www.w3.org/1999/xlink" width="400" height="400" viewBox="0, 0, 400,400"><g id="svgg"><path id="path0" d="M185.139 2.997 C 161.693 14.681,161.879 49.558,185.449 61.090 C 217.791 76.913,247.269 37.362,223.865 9.548 C 215.794 -0.045,197.466 -3.145,185.139 2.997 M147.893 51.559 C 113.554 68.870,97.554 98.682,95.373 149.419 C 94.272 175.017,93.935 178.501,91.095 193.605 C 84.724 227.484,73.157 246.881,47.827 266.163 C 32.953 277.486,30.208 282.215,31.912 293.581 C 36.241 322.444,80.126 334.476,185.601 335.719 C 309.984 337.184,363.398 324.850,368.088 293.581 C 369.792 282.215,367.047 277.486,352.173 266.163 C 326.843 246.881,315.276 227.484,308.905 193.605 C 306.065 178.501,305.728 175.017,304.627 149.419 C 302.397 97.556,283.752 64.325,248.656 49.661 L 244.523 47.934 241.991 53.147 C 225.534 87.020,176.771 87.451,158.455 53.884 L 155.181 47.885 147.893 51.559 M151.163 353.140 C 151.163 393.586,203.312 415.316,232.997 387.241 C 242.177 378.559,248.837 364.221,248.837 353.140 L 248.837 350.581 200.000 350.581 L 151.163 350.581 151.163 353.140 " stroke="none" fill="#000000" fill-rule="evenodd"></path></g></svg>