<svg id="svg" version="1.1" xmlns="http://www.w3.org/2000/svg" xmlns:xlink="http://www.w3.org/1999/xlink" width="400" height="305.88235294117646" viewBox="0, 0, 400,305.88235294117646"><g id="svgg"><path id="path0" d="M283.541 41.746 C 282.684 42.136,281.464 43.056,280.787 43.824 C 280.118 44.582,279.158 45.425,278.653 45.697 C 278.148 45.969,277.047 46.974,276.205 47.930 C 275.363 48.887,274.331 49.997,273.910 50.397 C 272.653 51.593,268.504 55.731,268.022 56.270 C 267.775 56.546,266.719 57.509,265.675 58.411 C 264.631 59.313,263.458 60.556,263.068 61.173 C 262.679 61.790,261.757 62.703,261.019 63.202 C 260.282 63.701,258.827 65.007,257.786 66.102 C 256.746 67.198,255.729 68.233,255.527 68.401 C 255.325 68.569,253.753 70.084,252.034 71.767 C 250.315 73.451,244.590 79.028,239.310 84.162 C 224.165 98.890,223.714 99.402,222.495 103.242 C 222.290 103.890,221.526 105.151,220.797 106.045 C 217.486 110.110,216.245 113.872,216.657 118.592 C 217.714 130.683,217.287 133.038,213.650 135.186 C 212.574 135.822,211.141 136.996,210.467 137.794 C 209.793 138.593,208.626 139.607,207.874 140.048 C 206.188 141.036,205.533 141.554,204.236 142.923 C 202.668 144.578,196.174 144.597,196.174 142.946 C 196.174 142.799,194.877 141.609,193.292 140.302 C 191.706 138.994,190.251 137.637,190.058 137.287 C 189.866 136.936,188.602 135.754,187.250 134.660 L 184.791 132.670 184.983 130.277 C 185.089 128.960,185.361 127.377,185.589 126.757 C 185.817 126.138,186.399 124.598,186.881 123.336 L 187.758 121.041 187.742 112.318 C 187.725 103.064,187.390 100.709,185.599 97.226 C 185.323 96.690,184.690 95.094,184.192 93.679 C 182.930 90.091,182.636 89.606,180.708 87.934 C 179.752 87.105,178.442 85.519,177.720 84.317 C 176.026 81.496,171.966 77.498,169.320 76.046 C 168.183 75.422,166.482 74.136,165.540 73.187 C 164.571 72.210,163.309 71.280,162.633 71.043 C 160.918 70.442,158.919 69.066,157.714 67.658 C 156.575 66.327,153.688 64.658,150.569 63.527 C 149.472 63.129,147.710 62.297,146.652 61.677 C 144.281 60.287,140.960 58.901,138.503 58.274 C 136.657 57.804,134.892 56.855,133.435 55.550 C 131.759 54.049,127.859 53.553,117.733 53.556 L 108.611 53.558 106.716 54.497 C 105.673 55.013,104.545 55.686,104.208 55.992 C 103.130 56.973,101.131 57.808,96.891 59.047 C 90.369 60.954,89.913 61.425,87.974 68.248 C 87.050 71.498,86.946 71.738,85.490 73.951 C 83.098 77.586,82.860 78.955,82.901 88.826 L 82.938 97.621 83.859 100.497 C 84.366 102.079,84.976 103.535,85.215 103.733 C 85.931 104.328,87.152 106.906,87.677 108.934 C 88.338 111.485,89.393 113.808,91.155 116.590 C 91.960 117.859,92.792 119.518,93.006 120.275 C 93.528 122.125,95.041 124.844,96.072 125.784 C 97.175 126.791,99.708 129.870,100.850 131.594 C 101.351 132.349,102.561 133.726,103.540 134.655 C 104.518 135.583,105.751 137.151,106.280 138.139 C 106.845 139.198,107.865 140.455,108.762 141.199 C 109.599 141.895,110.638 142.874,111.071 143.375 C 112.862 145.447,114.146 146.520,115.742 147.275 C 117.625 148.167,120.750 150.104,121.027 150.552 C 121.405 151.164,124.481 152.659,126.090 153.013 C 128.679 153.583,134.835 155.445,137.700 156.525 C 139.876 157.345,150.173 157.107,151.391 156.208 C 152.746 155.208,155.364 154.351,158.876 153.756 L 162.102 153.211 163.607 154.075 C 165.566 155.201,170.134 159.806,171.277 161.807 C 171.769 162.669,172.835 163.923,173.646 164.593 C 174.457 165.263,175.668 166.618,176.337 167.603 C 179.764 172.654,185.614 173.122,190.394 168.727 C 191.469 167.739,193.110 166.368,194.040 165.680 C 194.970 164.992,196.293 163.894,196.980 163.240 C 199.568 160.774,201.337 159.214,202.335 158.518 C 202.902 158.122,204.340 156.796,205.529 155.571 C 206.718 154.346,208.165 153.141,208.743 152.894 C 209.321 152.646,210.207 152.010,210.712 151.480 C 213.082 148.993,214.171 148.039,215.302 147.460 C 215.976 147.115,217.504 145.831,218.699 144.607 C 219.893 143.383,221.202 142.278,221.606 142.152 C 223.692 141.500,225.156 139.489,226.504 135.426 L 227.474 132.499 226.970 129.986 C 225.551 122.908,225.735 116.460,227.422 114.179 C 227.763 113.717,228.578 111.926,229.233 110.199 C 230.936 105.709,231.617 104.810,238.019 98.622 C 241.179 95.567,247.276 89.603,251.568 85.369 C 255.861 81.134,260.195 76.976,261.200 76.129 C 262.205 75.282,263.415 74.100,263.890 73.504 C 265.110 71.969,271.530 65.695,273.369 64.242 C 274.217 63.572,275.284 62.507,275.741 61.876 C 276.198 61.245,277.296 60.114,278.180 59.362 C 280.455 57.429,281.259 56.619,282.470 55.044 C 283.055 54.284,284.208 53.196,285.033 52.627 C 290.859 48.611,289.543 39.014,283.541 41.746 M295.663 55.450 C 294.367 56.964,291.834 59.463,290.289 60.750 C 289.683 61.255,288.990 62.031,288.750 62.475 C 288.510 62.919,287.271 64.067,285.995 65.027 C 284.720 65.987,283.354 67.276,282.959 67.893 C 282.135 69.180,281.047 70.204,279.171 71.455 C 278.445 71.939,277.728 72.566,277.577 72.848 C 276.946 74.028,275.010 76.054,273.750 76.852 C 273.007 77.324,271.753 78.541,270.963 79.558 C 270.174 80.574,268.865 81.832,268.055 82.352 C 266.678 83.235,265.932 83.992,264.171 86.291 C 263.781 86.801,262.706 87.720,261.783 88.332 C 260.860 88.945,259.871 89.784,259.586 90.196 C 258.395 91.916,257.266 93.056,255.763 94.057 C 254.887 94.641,253.757 95.708,253.252 96.430 C 252.747 97.151,251.401 98.703,250.261 99.878 C 249.121 101.054,248.109 102.328,248.013 102.711 C 247.190 105.990,256.686 107.566,258.809 104.502 C 260.102 102.635,261.524 101.251,262.936 100.482 C 264.060 99.871,264.678 99.246,265.390 98.001 C 266.087 96.782,266.827 96.023,268.155 95.165 C 269.152 94.520,270.366 93.468,270.852 92.827 C 271.337 92.185,272.032 91.277,272.394 90.809 C 272.757 90.341,273.557 89.694,274.171 89.372 C 275.499 88.675,277.067 87.170,277.996 85.700 C 278.365 85.115,279.147 84.315,279.732 83.922 C 281.217 82.926,283.103 81.107,284.009 79.798 C 284.430 79.190,285.286 78.402,285.912 78.047 C 287.311 77.253,289.684 74.915,290.301 73.723 C 290.552 73.237,290.885 72.839,291.040 72.839 C 291.584 72.839,295.099 69.690,295.709 68.658 C 296.047 68.084,297.197 66.991,298.265 66.229 C 301.947 63.602,302.449 62.540,301.458 59.461 C 299.879 54.551,297.713 53.053,295.663 55.450 M121.194 63.981 C 124.953 64.281,129.383 64.964,133.209 65.833 C 134.929 66.224,137.619 67.462,138.491 68.265 C 139.264 68.976,142.717 70.550,144.147 70.842 C 146.051 71.230,148.954 73.060,151.222 75.301 C 152.440 76.505,153.997 77.841,154.683 78.270 C 155.369 78.700,156.566 79.693,157.345 80.479 C 158.182 81.324,159.370 82.134,160.252 82.463 C 162.573 83.326,163.606 84.064,164.780 85.698 C 165.423 86.594,166.671 87.726,167.848 88.481 C 169.656 89.642,169.942 89.977,171.070 92.255 C 171.751 93.630,172.858 95.291,173.528 95.946 C 174.800 97.187,175.835 99.780,177.071 104.820 C 177.360 105.998,177.837 107.445,178.131 108.035 C 178.618 109.012,178.629 109.325,178.247 111.555 C 178.017 112.900,177.626 115.723,177.379 117.827 C 177.132 119.931,176.661 122.484,176.333 123.501 C 176.004 124.518,175.503 126.490,175.219 127.884 C 174.935 129.277,174.508 130.882,174.271 131.450 C 173.883 132.379,173.900 132.623,174.445 133.894 C 174.778 134.670,175.267 136.052,175.532 136.964 C 176.074 138.828,177.868 140.916,179.843 141.983 C 180.493 142.335,181.370 143.050,181.790 143.572 C 182.998 145.071,185.263 147.207,185.643 147.207 C 185.834 147.207,186.646 147.818,187.448 148.565 L 188.905 149.922 188.681 152.610 C 188.377 156.258,187.144 158.491,185.417 158.522 C 184.046 158.546,177.041 152.771,175.404 150.268 C 175.129 149.847,174.491 149.165,173.986 148.752 C 172.559 147.585,169.897 144.756,169.697 144.194 C 168.659 141.273,161.710 141.186,157.411 144.040 C 153.785 146.447,151.708 146.901,144.341 146.901 C 136.148 146.901,134.872 146.580,126.549 142.414 C 120.159 139.216,119.872 139.022,118.990 137.294 C 118.656 136.638,117.414 135.123,116.231 133.927 C 115.048 132.731,113.787 131.320,113.429 130.793 C 113.071 130.265,112.242 129.052,111.587 128.096 C 110.933 127.140,109.656 125.718,108.750 124.936 C 107.844 124.154,106.314 122.475,105.352 121.206 C 104.389 119.937,103.368 118.725,103.084 118.513 C 102.307 117.934,100.816 115.112,100.420 113.471 C 100.058 111.971,98.099 108.112,97.426 107.575 C 96.875 107.134,95.302 102.993,94.869 100.842 C 94.666 99.832,94.369 98.759,94.211 98.459 C 92.905 95.985,92.793 80.524,94.064 78.194 C 94.339 77.689,94.965 76.357,95.455 75.233 C 96.133 73.677,96.626 73.010,97.522 72.437 C 98.921 71.542,100.029 70.378,101.074 68.707 C 102.169 66.956,103.059 66.256,104.973 65.643 C 105.899 65.346,107.188 64.837,107.837 64.511 C 109.143 63.855,113.158 63.343,115.532 63.531 C 116.373 63.597,118.921 63.800,121.194 63.981 M310.649 67.252 C 308.834 67.376,307.729 68.205,302.234 73.566 C 301.047 74.723,299.250 76.360,298.240 77.204 C 297.230 78.048,295.820 79.418,295.106 80.248 C 293.727 81.851,291.468 83.856,291.040 83.856 C 290.898 83.856,290.149 84.648,289.375 85.616 C 288.601 86.584,287.401 87.789,286.710 88.294 C 285.560 89.134,284.461 90.179,281.773 92.987 C 281.235 93.548,280.139 94.422,279.336 94.929 C 278.533 95.437,277.707 96.171,277.500 96.562 C 276.856 97.775,274.857 99.743,273.636 100.366 C 272.994 100.694,272.070 101.452,271.582 102.051 C 271.095 102.650,270.329 103.592,269.880 104.144 C 269.432 104.696,268.674 105.348,268.197 105.593 C 266.555 106.434,265.295 107.577,264.662 108.799 C 263.885 110.300,262.754 111.831,261.438 113.166 C 259.492 115.141,260.606 116.997,264.843 118.838 C 267.544 120.011,268.241 120.170,268.542 119.682 C 268.640 119.524,269.469 118.966,270.386 118.442 C 271.600 117.747,277.981 111.545,293.943 95.546 L 315.835 73.604 315.836 70.795 C 315.838 66.845,315.905 66.891,310.649 67.252 M322.967 81.571 C 320.023 82.110,319.094 82.741,316.756 85.792 C 316.167 86.560,315.311 87.349,314.855 87.544 C 313.982 87.917,311.743 90.159,310.790 91.614 C 310.482 92.085,309.460 92.996,308.519 93.637 C 307.579 94.279,306.396 95.390,305.891 96.105 C 304.761 97.706,303.389 99.069,302.356 99.616 C 301.571 100.031,299.633 102.072,298.609 103.561 C 298.307 104.001,297.319 104.834,296.414 105.413 C 295.509 105.992,294.207 107.224,293.522 108.152 C 292.837 109.079,291.905 110.086,291.452 110.390 C 290.631 110.939,288.059 113.447,286.298 115.416 C 285.789 115.985,284.647 117.001,283.759 117.674 C 282.872 118.347,281.724 119.552,281.209 120.352 C 280.694 121.151,280.163 121.806,280.029 121.806 C 279.404 121.806,276.123 124.649,275.440 125.782 C 275.019 126.480,273.820 127.664,272.775 128.413 C 271.731 129.162,270.244 130.596,269.471 131.601 C 268.671 132.640,267.446 133.782,266.627 134.252 C 265.835 134.706,263.892 136.166,262.308 137.496 C 259.195 140.109,257.131 141.193,254.010 141.852 C 252.912 142.083,251.614 142.425,251.126 142.610 C 250.449 142.868,249.761 142.842,248.226 142.501 C 238.206 140.275,232.636 140.943,230.257 144.654 C 229.701 145.521,228.398 146.967,227.363 147.867 C 226.328 148.767,225.099 150.057,224.632 150.735 C 224.165 151.413,222.940 152.842,221.909 153.912 C 219.344 156.575,217.912 158.364,216.665 160.464 C 216.084 161.443,214.813 162.936,213.840 163.782 C 212.868 164.628,211.806 165.843,211.479 166.483 C 210.867 167.684,209.585 169.065,207.691 170.564 C 207.091 171.039,206.177 172.168,205.659 173.073 C 204.694 174.759,203.703 175.737,202.044 176.641 C 201.502 176.936,200.696 177.873,200.146 178.848 C 199.161 180.594,197.386 182.402,196.658 182.402 C 196.068 182.402,194.282 184.482,193.635 185.922 C 193.241 186.801,192.510 187.540,191.049 188.542 C 189.616 189.524,188.803 190.340,188.306 191.296 C 187.638 192.581,186.609 193.650,184.085 195.681 C 183.481 196.168,182.773 196.978,182.512 197.483 C 182.020 198.434,180.405 200.086,178.749 201.332 C 178.223 201.728,177.523 202.579,177.195 203.223 C 176.605 204.380,173.683 207.498,173.189 207.498 C 173.049 207.498,172.356 208.290,171.649 209.258 C 170.942 210.226,169.388 211.991,168.196 213.182 C 167.004 214.372,165.517 216.024,164.892 216.854 C 164.267 217.684,162.499 219.664,160.963 221.254 C 159.428 222.844,157.787 224.703,157.316 225.385 C 156.846 226.068,155.770 227.208,154.925 227.919 C 154.080 228.631,152.821 230.062,152.128 231.100 C 151.435 232.138,150.261 233.460,149.520 234.038 C 148.090 235.152,145.983 237.660,145.983 238.249 C 145.983 238.689,144.558 240.036,143.505 240.591 C 142.535 241.102,140.939 242.910,140.656 243.817 C 140.462 244.438,139.717 245.158,136.912 247.434 C 136.292 247.937,135.539 248.901,135.240 249.576 C 134.582 251.063,133.097 252.492,131.446 253.227 C 130.695 253.562,129.538 254.582,128.452 255.865 C 126.896 257.706,126.473 258.019,124.942 258.464 C 123.985 258.742,122.657 259.248,121.991 259.587 C 118.878 261.175,109.604 258.027,108.072 254.862 C 104.981 248.475,105.744 243.004,110.442 237.872 C 111.790 236.400,113.304 234.625,113.807 233.929 C 114.309 233.233,115.729 231.898,116.962 230.963 C 118.195 230.028,120.237 228.284,121.500 227.088 C 122.762 225.891,124.277 224.541,124.866 224.087 C 125.455 223.634,126.006 223.185,126.090 223.090 C 126.174 222.995,126.532 222.719,126.885 222.477 C 127.238 222.234,128.117 221.352,128.837 220.517 C 129.558 219.682,131.129 218.361,132.328 217.582 C 133.573 216.773,134.893 215.611,135.404 214.873 C 135.956 214.076,137.079 213.118,138.336 212.371 C 140.007 211.378,141.488 210.024,142.610 208.464 C 142.698 208.341,143.803 207.603,145.065 206.824 C 146.452 205.968,147.775 204.855,148.406 204.013 C 148.981 203.246,150.266 202.107,151.262 201.482 C 152.258 200.858,153.785 199.562,154.654 198.602 C 155.524 197.642,157.062 196.230,158.072 195.464 C 159.082 194.698,160.493 193.528,161.209 192.863 L 162.510 191.654 162.510 188.620 C 162.510 184.826,162.533 184.851,158.891 184.851 L 156.008 184.851 154.044 186.688 C 152.963 187.698,151.706 188.754,151.250 189.033 C 150.794 189.313,149.457 190.529,148.279 191.736 C 147.100 192.943,145.516 194.313,144.759 194.780 C 144.002 195.246,142.479 196.564,141.375 197.708 C 140.256 198.868,138.735 200.086,137.936 200.462 C 137.148 200.832,136.085 201.637,135.573 202.251 C 134.001 204.138,133.335 204.737,131.905 205.554 C 131.148 205.987,129.620 207.276,128.510 208.419 C 127.401 209.562,125.933 210.783,125.248 211.132 C 124.564 211.481,123.276 212.603,122.386 213.626 C 121.497 214.649,119.935 216.085,118.915 216.817 C 117.896 217.550,116.147 219.023,115.029 220.092 C 113.008 222.023,112.243 222.687,109.520 224.873 C 108.738 225.500,107.595 226.634,106.980 227.391 C 106.365 228.148,103.768 230.947,101.209 233.611 C 95.394 239.664,95.400 239.651,95.360 246.978 C 95.327 253.021,95.856 255.534,97.532 257.312 C 98.091 257.905,99.322 259.539,100.266 260.944 C 101.555 262.862,102.452 263.818,103.861 264.777 C 104.893 265.480,106.439 266.800,107.295 267.710 C 111.479 272.157,125.974 272.516,130.212 268.278 C 130.758 267.732,131.978 266.848,132.922 266.316 C 134.213 265.587,135.013 264.814,136.147 263.200 C 137.036 261.934,138.262 260.646,139.135 260.060 C 140.157 259.374,140.966 258.464,141.744 257.122 C 142.515 255.793,143.341 254.860,144.351 254.174 C 146.222 252.905,147.059 251.999,147.635 250.621 C 148.057 249.611,148.787 248.870,151.637 246.567 C 152.229 246.088,152.967 245.124,153.278 244.424 C 153.799 243.250,154.892 242.127,157.300 240.290 C 157.820 239.894,158.524 239.022,158.866 238.352 C 159.208 237.681,160.581 236.081,161.917 234.795 C 163.253 233.510,164.346 232.346,164.346 232.210 C 164.346 231.767,167.160 228.464,171.844 223.410 C 174.369 220.686,177.123 217.662,177.965 216.691 C 178.806 215.720,180.142 214.345,180.933 213.636 C 181.723 212.927,183.020 211.395,183.815 210.233 C 184.609 209.070,185.504 208.041,185.803 207.946 C 186.521 207.719,189.390 204.565,189.958 203.380 C 190.203 202.868,191.021 202.035,191.775 201.530 C 193.168 200.597,195.256 198.324,195.256 197.740 C 195.256 197.564,195.684 196.933,196.206 196.338 L 197.156 195.256 200.185 195.256 C 203.651 195.256,203.641 195.251,205.460 198.197 C 206.076 199.195,207.280 200.560,208.135 201.230 C 208.990 201.900,210.165 203.158,210.746 204.025 C 211.788 205.580,214.284 208.110,214.776 208.110 C 214.915 208.110,215.628 208.971,216.361 210.023 C 217.094 211.075,218.829 213.106,220.218 214.537 C 224.369 218.815,228.086 222.830,229.851 224.943 C 230.765 226.037,232.260 227.689,233.173 228.615 C 234.087 229.541,235.277 230.987,235.818 231.829 C 236.360 232.670,237.650 234.094,238.685 234.994 C 239.720 235.893,240.825 237.135,241.141 237.753 C 241.742 238.932,242.487 239.735,244.938 241.849 C 245.752 242.551,246.697 243.682,247.039 244.363 C 247.875 246.026,248.384 246.567,250.217 247.743 C 251.319 248.450,251.961 249.142,252.419 250.115 C 253.138 251.645,254.469 253.081,256.493 254.511 C 257.367 255.128,258.151 256.060,258.717 257.155 C 259.251 258.187,260.073 259.188,260.825 259.722 C 262.303 260.772,263.692 262.142,264.379 263.230 C 265.067 264.320,266.423 265.413,268.248 266.349 C 269.090 266.781,270.445 267.693,271.259 268.375 C 275.858 272.226,289.128 271.994,293.116 267.992 C 294.135 266.969,295.263 266.184,296.195 265.849 C 298.577 264.993,299.738 263.815,300.844 261.134 C 301.382 259.829,302.295 258.147,302.872 257.397 C 304.566 255.196,304.973 253.356,304.973 247.896 L 304.973 243.152 303.803 240.857 C 303.160 239.594,302.168 237.804,301.600 236.878 C 301.031 235.953,300.264 234.644,299.895 233.971 C 299.526 233.298,297.969 231.505,296.437 229.988 C 294.904 228.471,293.403 226.855,293.102 226.396 C 292.801 225.937,291.768 225.026,290.807 224.371 C 289.846 223.716,288.370 222.528,287.529 221.733 C 286.687 220.937,284.621 219.097,282.938 217.644 C 281.255 216.192,279.231 214.361,278.441 213.577 C 277.650 212.793,276.193 211.582,275.201 210.887 C 274.210 210.192,272.757 208.879,271.972 207.970 C 271.156 207.024,269.765 205.887,268.724 205.315 C 267.411 204.593,266.566 203.835,265.688 202.589 C 264.798 201.327,263.891 200.519,262.313 199.582 C 260.884 198.733,259.837 197.837,259.211 196.928 C 258.617 196.064,257.723 195.279,256.798 194.811 C 254.841 193.819,253.625 192.761,252.624 191.180 C 252.097 190.346,250.990 189.344,249.570 188.415 C 248.345 187.613,246.969 186.418,246.512 185.760 C 246.056 185.101,244.860 183.973,243.854 183.253 C 242.848 182.533,241.452 181.335,240.752 180.592 C 240.052 179.849,239.273 179.068,239.021 178.856 C 238.768 178.645,237.598 177.682,236.419 176.716 C 235.241 175.751,233.175 173.900,231.829 172.602 C 230.482 171.305,228.726 169.805,227.927 169.269 C 226.259 168.152,226.107 167.487,227.084 165.572 C 227.420 164.913,227.976 163.623,228.320 162.704 C 228.974 160.954,233.456 156.154,236.564 153.874 L 237.934 152.869 247.209 152.827 L 256.483 152.785 257.622 152.026 C 258.248 151.608,259.269 150.783,259.890 150.192 C 260.619 149.500,261.868 148.819,263.410 148.275 C 267.408 146.862,268.821 146.136,270.535 144.614 C 271.438 143.811,272.898 142.694,273.779 142.130 C 274.660 141.567,275.910 140.463,276.558 139.677 C 278.159 137.734,279.409 136.516,280.924 135.425 C 281.625 134.920,282.580 133.917,283.047 133.197 C 283.515 132.477,284.819 131.224,285.947 130.412 C 287.102 129.581,288.498 128.219,289.144 127.294 C 289.775 126.390,291.071 125.096,292.023 124.417 C 292.976 123.738,294.406 122.375,295.202 121.387 C 295.998 120.399,297.232 119.222,297.943 118.771 C 298.655 118.319,299.799 117.268,300.485 116.435 C 302.266 114.272,302.991 113.563,304.225 112.775 C 304.823 112.393,305.718 111.571,306.214 110.949 C 307.444 109.405,309.080 107.784,310.703 106.503 C 311.450 105.914,312.519 104.771,313.080 103.962 C 313.641 103.154,314.829 102.008,315.721 101.416 C 317.395 100.305,319.023 98.650,319.559 97.514 C 319.728 97.156,320.593 96.391,321.481 95.814 C 322.370 95.236,323.632 94.090,324.287 93.266 C 324.942 92.442,326.175 91.094,327.026 90.271 C 329.822 87.565,330.365 85.836,329.132 83.570 C 327.804 81.131,326.929 80.847,322.967 81.571 M222.455 178.115 C 223.305 178.787,224.147 179.611,224.326 179.945 C 224.505 180.280,225.487 181.121,226.508 181.814 C 227.529 182.508,229.282 183.996,230.403 185.122 C 231.524 186.247,232.785 187.389,233.206 187.658 C 233.627 187.927,235.761 189.783,237.950 191.782 C 240.138 193.781,242.410 195.750,242.999 196.157 C 243.588 196.564,244.716 197.608,245.506 198.477 C 246.296 199.346,247.827 200.635,248.910 201.340 C 249.993 202.045,251.450 203.301,252.149 204.130 C 252.849 204.959,254.300 206.164,255.375 206.808 C 256.450 207.452,257.877 208.641,258.546 209.451 C 259.215 210.260,260.696 211.536,261.837 212.286 C 262.978 213.035,264.453 214.263,265.113 215.013 C 265.774 215.764,267.094 216.885,268.046 217.505 C 269.615 218.526,272.137 220.810,272.420 221.467 C 272.482 221.611,273.352 222.349,274.353 223.106 C 275.354 223.864,277.625 225.845,279.399 227.510 C 281.174 229.175,283.124 230.851,283.733 231.236 C 284.343 231.620,286.126 233.426,287.697 235.248 C 289.268 237.071,290.861 238.856,291.237 239.215 C 295.484 243.268,294.830 253.961,290.142 257.115 C 286.874 259.314,280.426 260.663,278.318 259.590 C 277.661 259.255,276.371 258.758,275.452 258.485 C 273.861 258.014,271.772 256.445,271.764 255.717 C 271.759 255.204,269.892 253.543,268.554 252.861 C 267.062 252.100,265.920 250.909,265.085 249.241 C 264.739 248.550,263.953 247.586,263.339 247.099 C 261.420 245.576,260.138 244.200,259.533 243.014 C 258.992 241.954,258.192 241.160,255.895 239.405 C 255.400 239.027,254.581 237.994,254.074 237.110 C 253.567 236.225,252.142 234.452,250.907 233.170 C 249.672 231.888,248.041 230.052,247.284 229.090 C 246.526 228.128,244.874 226.268,243.611 224.957 C 242.349 223.645,239.663 220.752,237.643 218.529 C 235.624 216.305,233.649 214.187,233.256 213.823 C 231.174 211.894,228.595 209.142,228.455 208.699 C 228.367 208.421,227.497 207.555,226.523 206.773 C 225.548 205.992,224.347 204.776,223.852 204.073 C 223.358 203.369,222.405 202.302,221.735 201.703 C 219.666 199.851,218.170 198.219,217.331 196.897 C 216.888 196.201,215.796 195.055,214.903 194.352 C 214.010 193.649,212.818 192.359,212.255 191.487 C 211.202 189.855,209.763 188.379,208.414 187.549 C 206.249 186.215,206.651 184.920,209.931 182.658 C 210.697 182.130,211.847 180.960,212.486 180.058 C 213.978 177.955,214.656 177.531,217.031 177.223 C 220.575 176.764,220.789 176.799,222.455 178.115 " stroke="none" fill="#252525" fill-rule="evenodd"></path><path id="path1" d="M0.000 153.022 L 0.000 306.044 200.000 306.044 L 400.000 306.044 400.000 153.022 L 400.000 0.000 200.000 0.000 L 0.000 0.000 0.000 153.022 M286.924 41.763 C 290.148 43.652,289.070 49.844,285.033 52.627 C 284.208 53.196,283.055 54.284,282.470 55.044 C 281.259 56.619,280.455 57.429,278.180 59.362 C 277.296 60.114,276.198 61.245,275.741 61.876 C 275.284 62.507,274.217 63.572,273.369 64.242 C 271.530 65.695,265.110 71.969,263.890 73.504 C 263.415 74.100,262.205 75.282,261.200 76.129 C 260.195 76.976,255.861 81.134,251.568 85.369 C 247.276 89.603,241.179 95.567,238.019 98.622 C 231.617 104.810,230.936 105.709,229.233 110.199 C 228.578 111.926,227.763 113.717,227.422 114.179 C 225.735 116.460,225.551 122.908,226.970 129.986 L 227.474 132.499 226.504 135.426 C 225.156 139.489,223.692 141.500,221.606 142.152 C 221.202 142.278,219.893 143.383,218.699 144.607 C 217.504 145.831,215.976 147.115,215.302 147.460 C 214.171 148.039,213.082 148.993,210.712 151.480 C 210.207 152.010,209.321 152.646,208.743 152.894 C 208.165 153.141,206.718 154.346,205.529 155.571 C 204.340 156.796,202.902 158.122,202.335 158.518 C 201.337 159.214,199.568 160.774,196.980 163.240 C 196.293 163.894,194.970 164.992,194.040 165.680 C 193.110 166.368,191.469 167.739,190.394 168.727 C 185.614 173.122,179.764 172.654,176.337 167.603 C 175.668 166.618,174.457 165.263,173.646 164.593 C 172.835 163.923,171.769 162.669,171.277 161.807 C 170.134 159.806,165.566 155.201,163.607 154.075 L 162.102 153.211 158.876 153.756 C 155.364 154.351,152.746 155.208,151.391 156.208 C 150.173 157.107,139.876 157.345,137.700 156.525 C 134.835 155.445,128.679 153.583,126.090 153.013 C 124.481 152.659,121.405 151.164,121.027 150.552 C 120.750 150.104,117.625 148.167,115.742 147.275 C 114.146 146.520,112.862 145.447,111.071 143.375 C 110.638 142.874,109.599 141.895,108.762 141.199 C 107.865 140.455,106.845 139.198,106.280 138.139 C 105.751 137.151,104.518 135.583,103.540 134.655 C 102.561 133.726,101.351 132.349,100.850 131.594 C 99.708 129.870,97.175 126.791,96.072 125.784 C 95.041 124.844,93.528 122.125,93.006 120.275 C 92.792 119.518,91.960 117.859,91.155 116.590 C 89.393 113.808,88.338 111.485,87.677 108.934 C 87.152 106.906,85.931 104.328,85.215 103.733 C 84.976 103.535,84.366 102.079,83.859 100.497 L 82.938 97.621 82.901 88.826 C 82.860 78.955,83.098 77.586,85.490 73.951 C 86.946 71.738,87.050 71.498,87.974 68.248 C 89.913 61.425,90.369 60.954,96.891 59.047 C 101.131 57.808,103.130 56.973,104.208 55.992 C 104.545 55.686,105.673 55.013,106.716 54.497 L 108.611 53.558 117.733 53.556 C 127.859 53.553,131.759 54.049,133.435 55.550 C 134.892 56.855,136.657 57.804,138.503 58.274 C 140.960 58.901,144.281 60.287,146.652 61.677 C 147.710 62.297,149.472 63.129,150.569 63.527 C 153.688 64.658,156.575 66.327,157.714 67.658 C 158.919 69.066,160.918 70.442,162.633 71.043 C 163.309 71.280,164.571 72.210,165.540 73.187 C 166.482 74.136,168.183 75.422,169.320 76.046 C 171.966 77.498,176.026 81.496,177.720 84.317 C 178.442 85.519,179.752 87.105,180.708 87.934 C 182.636 89.606,182.930 90.091,184.192 93.679 C 184.690 95.094,185.323 96.690,185.599 97.226 C 187.390 100.709,187.725 103.064,187.742 112.318 L 187.758 121.041 186.881 123.336 C 186.399 124.598,185.817 126.138,185.589 126.757 C 185.361 127.377,185.089 128.960,184.983 130.277 L 184.791 132.670 187.250 134.660 C 188.602 135.754,189.866 136.936,190.058 137.287 C 190.251 137.637,191.706 138.994,193.292 140.302 C 194.877 141.609,196.174 142.799,196.174 142.946 C 196.174 144.597,202.668 144.578,204.236 142.923 C 205.533 141.554,206.188 141.036,207.874 140.048 C 208.626 139.607,209.793 138.593,210.467 137.794 C 211.141 136.996,212.574 135.822,213.650 135.186 C 217.287 133.038,217.714 130.683,216.657 118.592 C 216.245 113.872,217.486 110.110,220.797 106.045 C 221.526 105.151,222.290 103.890,222.495 103.242 C 223.714 99.402,224.165 98.890,239.310 84.162 C 244.590 79.028,250.315 73.451,252.034 71.767 C 253.753 70.084,255.325 68.569,255.527 68.401 C 255.729 68.233,256.746 67.198,257.786 66.102 C 258.827 65.007,260.282 63.701,261.019 63.202 C 261.757 62.703,262.679 61.790,263.068 61.173 C 263.458 60.556,264.631 59.313,265.675 58.411 C 266.719 57.509,267.775 56.546,268.022 56.270 C 268.504 55.731,272.653 51.593,273.910 50.397 C 274.331 49.997,275.363 48.887,276.205 47.930 C 277.047 46.974,278.148 45.969,278.653 45.697 C 279.158 45.425,280.118 44.582,280.787 43.824 C 281.817 42.656,284.378 41.090,285.359 41.028 C 285.513 41.018,286.217 41.349,286.924 41.763 M298.578 54.752 C 299.788 55.489,300.616 56.843,301.458 59.461 C 302.449 62.540,301.947 63.602,298.265 66.229 C 297.197 66.991,296.047 68.084,295.709 68.658 C 295.099 69.690,291.584 72.839,291.040 72.839 C 290.885 72.839,290.552 73.237,290.301 73.723 C 289.684 74.915,287.311 77.253,285.912 78.047 C 285.286 78.402,284.430 79.190,284.009 79.798 C 283.103 81.107,281.217 82.926,279.732 83.922 C 279.147 84.315,278.365 85.115,277.996 85.700 C 277.067 87.170,275.499 88.675,274.171 89.372 C 273.557 89.694,272.757 90.341,272.394 90.809 C 272.032 91.277,271.337 92.185,270.852 92.827 C 270.366 93.468,269.152 94.520,268.155 95.165 C 266.827 96.023,266.087 96.782,265.390 98.001 C 264.678 99.246,264.060 99.871,262.936 100.482 C 261.524 101.251,260.102 102.635,258.809 104.502 C 257.172 106.865,250.255 106.637,248.403 104.160 C 247.582 103.062,247.913 102.299,250.261 99.878 C 251.401 98.703,252.747 97.151,253.252 96.430 C 253.757 95.708,254.887 94.641,255.763 94.057 C 257.266 93.056,258.395 91.916,259.586 90.196 C 259.871 89.784,260.860 88.945,261.783 88.332 C 262.706 87.720,263.781 86.801,264.171 86.291 C 265.932 83.992,266.678 83.235,268.055 82.352 C 268.865 81.832,270.174 80.574,270.963 79.558 C 271.753 78.541,273.007 77.324,273.750 76.852 C 275.010 76.054,276.946 74.028,277.577 72.848 C 277.728 72.566,278.445 71.939,279.171 71.455 C 281.047 70.204,282.135 69.180,282.959 67.893 C 283.354 67.276,284.720 65.987,285.995 65.027 C 287.271 64.067,288.510 62.919,288.750 62.475 C 288.990 62.031,289.683 61.255,290.289 60.750 C 291.834 59.463,294.367 56.964,295.663 55.450 C 296.895 54.009,297.230 53.929,298.578 54.752 M111.509 63.664 C 110.137 63.804,108.486 64.184,107.837 64.511 C 107.188 64.837,105.899 65.346,104.973 65.643 C 103.059 66.256,102.169 66.956,101.074 68.707 C 100.029 70.378,98.921 71.542,97.522 72.437 C 96.626 73.010,96.133 73.677,95.455 75.233 C 94.965 76.357,94.339 77.689,94.064 78.194 C 92.793 80.524,92.905 95.985,94.211 98.459 C 94.369 98.759,94.666 99.832,94.869 100.842 C 95.302 102.993,96.875 107.134,97.426 107.575 C 98.099 108.112,100.058 111.971,100.420 113.471 C 100.816 115.112,102.307 117.934,103.084 118.513 C 103.368 118.725,104.389 119.937,105.352 121.206 C 106.314 122.475,107.844 124.154,108.750 124.936 C 109.656 125.718,110.933 127.140,111.587 128.096 C 112.242 129.052,113.071 130.265,113.429 130.793 C 113.787 131.320,115.048 132.731,116.231 133.927 C 117.414 135.123,118.656 136.638,118.990 137.294 C 119.872 139.022,120.159 139.216,126.549 142.414 C 134.872 146.580,136.148 146.901,144.341 146.901 C 151.708 146.901,153.785 146.447,157.411 144.040 C 161.710 141.186,168.659 141.273,169.697 144.194 C 169.897 144.756,172.559 147.585,173.986 148.752 C 174.491 149.165,175.129 149.847,175.404 150.268 C 177.041 152.771,184.046 158.546,185.417 158.522 C 187.144 158.491,188.377 156.258,188.681 152.610 L 188.905 149.922 187.448 148.565 C 186.646 147.818,185.834 147.207,185.643 147.207 C 185.263 147.207,182.998 145.071,181.790 143.572 C 181.370 143.050,180.493 142.335,179.843 141.983 C 177.868 140.916,176.074 138.828,175.532 136.964 C 175.267 136.052,174.778 134.670,174.445 133.894 C 173.900 132.623,173.883 132.379,174.271 131.450 C 174.508 130.882,174.935 129.277,175.219 127.884 C 175.503 126.490,176.004 124.518,176.333 123.501 C 176.661 122.484,177.132 119.931,177.379 117.827 C 177.626 115.723,178.017 112.900,178.247 111.555 C 178.629 109.325,178.618 109.012,178.131 108.035 C 177.837 107.445,177.360 105.998,177.071 104.820 C 175.835 99.780,174.800 97.187,173.528 95.946 C 172.858 95.291,171.751 93.630,171.070 92.255 C 169.942 89.977,169.656 89.642,167.848 88.481 C 166.671 87.726,165.423 86.594,164.780 85.698 C 163.606 84.064,162.573 83.326,160.252 82.463 C 159.370 82.134,158.182 81.324,157.345 80.479 C 156.566 79.693,155.369 78.700,154.683 78.270 C 153.997 77.841,152.440 76.505,151.222 75.301 C 148.954 73.060,146.051 71.230,144.147 70.842 C 142.717 70.550,139.264 68.976,138.491 68.265 C 137.619 67.462,134.929 66.224,133.209 65.833 C 129.383 64.964,124.953 64.281,121.194 63.981 C 118.921 63.800,116.373 63.597,115.532 63.531 C 114.690 63.464,112.880 63.524,111.509 63.664 M315.357 67.505 C 315.724 67.872,315.837 68.648,315.836 70.795 L 315.835 73.604 293.943 95.546 C 277.981 111.545,271.600 117.747,270.386 118.442 C 269.469 118.966,268.640 119.524,268.542 119.682 C 268.241 120.170,267.544 120.011,264.843 118.838 C 260.606 116.997,259.492 115.141,261.438 113.166 C 262.754 111.831,263.885 110.300,264.662 108.799 C 265.295 107.577,266.555 106.434,268.197 105.593 C 268.674 105.348,269.432 104.696,269.880 104.144 C 270.329 103.592,271.095 102.650,271.582 102.051 C 272.070 101.452,272.994 100.694,273.636 100.366 C 274.857 99.743,276.856 97.775,277.500 96.562 C 277.707 96.171,278.533 95.437,279.336 94.929 C 280.139 94.422,281.235 93.548,281.773 92.987 C 284.461 90.179,285.560 89.134,286.710 88.294 C 287.401 87.789,288.601 86.584,289.375 85.616 C 290.149 84.648,290.898 83.856,291.040 83.856 C 291.468 83.856,293.727 81.851,295.106 80.248 C 295.820 79.418,297.230 78.048,298.240 77.204 C 299.250 76.360,301.047 74.723,302.234 73.566 C 307.729 68.205,308.834 67.376,310.649 67.252 C 314.362 66.997,314.877 67.024,315.357 67.505 M327.478 81.616 C 330.593 83.456,330.408 86.998,327.026 90.271 C 326.175 91.094,324.942 92.442,324.287 93.266 C 323.632 94.090,322.370 95.236,321.481 95.814 C 320.593 96.391,319.728 97.156,319.559 97.514 C 319.023 98.650,317.395 100.305,315.721 101.416 C 314.829 102.008,313.641 103.154,313.080 103.962 C 312.519 104.771,311.450 105.914,310.703 106.503 C 309.080 107.784,307.444 109.405,306.214 110.949 C 305.718 111.571,304.823 112.393,304.225 112.775 C 302.991 113.563,302.266 114.272,300.485 116.435 C 299.799 117.268,298.655 118.319,297.943 118.771 C 297.232 119.222,295.998 120.399,295.202 121.387 C 294.406 122.375,292.976 123.738,292.023 124.417 C 291.071 125.096,289.775 126.390,289.144 127.294 C 288.498 128.219,287.102 129.581,285.947 130.412 C 284.819 131.224,283.515 132.477,283.047 133.197 C 282.580 133.917,281.625 134.920,280.924 135.425 C 279.409 136.516,278.159 137.734,276.558 139.677 C 275.910 140.463,274.660 141.567,273.779 142.130 C 272.898 142.694,271.438 143.811,270.535 144.614 C 268.821 146.136,267.408 146.862,263.410 148.275 C 261.868 148.819,260.619 149.500,259.890 150.192 C 259.269 150.783,258.248 151.608,257.622 152.026 L 256.483 152.785 247.209 152.827 L 237.934 152.869 236.564 153.874 C 233.456 156.154,228.974 160.954,228.320 162.704 C 227.976 163.623,227.420 164.913,227.084 165.572 C 226.107 167.487,226.259 168.152,227.927 169.269 C 228.726 169.805,230.482 171.305,231.829 172.602 C 233.175 173.900,235.241 175.751,236.419 176.716 C 237.598 177.682,238.768 178.645,239.021 178.856 C 239.273 179.068,240.052 179.849,240.752 180.592 C 241.452 181.335,242.848 182.533,243.854 183.253 C 244.860 183.973,246.056 185.101,246.512 185.760 C 246.969 186.418,248.345 187.613,249.570 188.415 C 250.990 189.344,252.097 190.346,252.624 191.180 C 253.625 192.761,254.841 193.819,256.798 194.811 C 257.723 195.279,258.617 196.064,259.211 196.928 C 259.837 197.837,260.884 198.733,262.313 199.582 C 263.891 200.519,264.798 201.327,265.688 202.589 C 266.566 203.835,267.411 204.593,268.724 205.315 C 269.765 205.887,271.156 207.024,271.972 207.970 C 272.757 208.879,274.210 210.192,275.201 210.887 C 276.193 211.582,277.650 212.793,278.441 213.577 C 279.231 214.361,281.255 216.192,282.938 217.644 C 284.621 219.097,286.687 220.937,287.529 221.733 C 288.370 222.528,289.846 223.716,290.807 224.371 C 291.768 225.026,292.801 225.937,293.102 226.396 C 293.403 226.855,294.904 228.471,296.437 229.988 C 297.969 231.505,299.526 233.298,299.895 233.971 C 300.264 234.644,301.031 235.953,301.600 236.878 C 302.168 237.804,303.160 239.594,303.803 240.857 L 304.973 243.152 304.973 247.896 C 304.973 253.356,304.566 255.196,302.872 257.397 C 302.295 258.147,301.382 259.829,300.844 261.134 C 299.738 263.815,298.577 264.993,296.195 265.849 C 295.263 266.184,294.135 266.969,293.116 267.992 C 289.128 271.994,275.858 272.226,271.259 268.375 C 270.445 267.693,269.090 266.781,268.248 266.349 C 266.423 265.413,265.067 264.320,264.379 263.230 C 263.692 262.142,262.303 260.772,260.825 259.722 C 260.073 259.188,259.251 258.187,258.717 257.155 C 258.151 256.060,257.367 255.128,256.493 254.511 C 254.469 253.081,253.138 251.645,252.419 250.115 C 251.961 249.142,251.319 248.450,250.217 247.743 C 248.384 246.567,247.875 246.026,247.039 244.363 C 246.697 243.682,245.752 242.551,244.938 241.849 C 242.487 239.735,241.742 238.932,241.141 237.753 C 240.825 237.135,239.720 235.893,238.685 234.994 C 237.650 234.094,236.360 232.670,235.818 231.829 C 235.277 230.987,234.087 229.541,233.173 228.615 C 232.260 227.689,230.765 226.037,229.851 224.943 C 228.086 222.830,224.369 218.815,220.218 214.537 C 218.829 213.106,217.094 211.075,216.361 210.023 C 215.628 208.971,214.915 208.110,214.776 208.110 C 214.284 208.110,211.788 205.580,210.746 204.025 C 210.165 203.158,208.990 201.900,208.135 201.230 C 207.280 200.560,206.076 199.195,205.460 198.197 C 203.641 195.251,203.651 195.256,200.185 195.256 L 197.156 195.256 196.206 196.338 C 195.684 196.933,195.256 197.564,195.256 197.740 C 195.256 198.324,193.168 200.597,191.775 201.530 C 191.021 202.035,190.203 202.868,189.958 203.380 C 189.390 204.565,186.521 207.719,185.803 207.946 C 185.504 208.041,184.609 209.070,183.815 210.233 C 183.020 211.395,181.723 212.927,180.933 213.636 C 180.142 214.345,178.806 215.720,177.965 216.691 C 177.123 217.662,174.369 220.686,171.844 223.410 C 167.160 228.464,164.346 231.767,164.346 232.210 C 164.346 232.346,163.253 233.510,161.917 234.795 C 160.581 236.081,159.208 237.681,158.866 238.352 C 158.524 239.022,157.820 239.894,157.300 240.290 C 154.892 242.127,153.799 243.250,153.278 244.424 C 152.967 245.124,152.229 246.088,151.637 246.567 C 148.787 248.870,148.057 249.611,147.635 250.621 C 147.059 251.999,146.222 252.905,144.351 254.174 C 143.341 254.860,142.515 255.793,141.744 257.122 C 140.966 258.464,140.157 259.374,139.135 260.060 C 138.262 260.646,137.036 261.934,136.147 263.200 C 135.013 264.814,134.213 265.587,132.922 266.316 C 131.978 266.848,130.758 267.732,130.212 268.278 C 125.974 272.516,111.479 272.157,107.295 267.710 C 106.439 266.800,104.893 265.480,103.861 264.777 C 102.452 263.818,101.555 262.862,100.266 260.944 C 99.322 259.539,98.091 257.905,97.532 257.312 C 95.856 255.534,95.327 253.021,95.360 246.978 C 95.400 239.651,95.394 239.664,101.209 233.611 C 103.768 230.947,106.365 228.148,106.980 227.391 C 107.595 226.634,108.738 225.500,109.520 224.873 C 112.243 222.687,113.008 222.023,115.029 220.092 C 116.147 219.023,117.896 217.550,118.915 216.817 C 119.935 216.085,121.497 214.649,122.386 213.626 C 123.276 212.603,124.564 211.481,125.248 211.132 C 125.933 210.783,127.401 209.562,128.510 208.419 C 129.620 207.276,131.148 205.987,131.905 205.554 C 133.335 204.737,134.001 204.138,135.573 202.251 C 136.085 201.637,137.148 200.832,137.936 200.462 C 138.735 200.086,140.256 198.868,141.375 197.708 C 142.479 196.564,144.002 195.246,144.759 194.780 C 145.516 194.313,147.100 192.943,148.279 191.736 C 149.457 190.529,150.794 189.313,151.250 189.033 C 151.706 188.754,152.963 187.698,154.044 186.688 L 156.008 184.851 158.891 184.851 C 162.533 184.851,162.510 184.826,162.510 188.620 L 162.510 191.654 161.209 192.863 C 160.493 193.528,159.082 194.698,158.072 195.464 C 157.062 196.230,155.524 197.642,154.654 198.602 C 153.785 199.562,152.258 200.858,151.262 201.482 C 150.266 202.107,148.981 203.246,148.406 204.013 C 147.775 204.855,146.452 205.968,145.065 206.824 C 143.803 207.603,142.698 208.341,142.610 208.464 C 141.488 210.024,140.007 211.378,138.336 212.371 C 137.079 213.118,135.956 214.076,135.404 214.873 C 134.893 215.611,133.573 216.773,132.328 217.582 C 131.129 218.361,129.558 219.682,128.837 220.517 C 128.117 221.352,127.238 222.234,126.885 222.477 C 126.532 222.719,126.174 222.995,126.090 223.090 C 126.006 223.185,125.455 223.634,124.866 224.087 C 124.277 224.541,122.762 225.891,121.500 227.088 C 120.237 228.284,118.195 230.028,116.962 230.963 C 115.729 231.898,114.309 233.233,113.807 233.929 C 113.304 234.625,111.790 236.400,110.442 237.872 C 105.744 243.004,104.981 248.475,108.072 254.862 C 109.604 258.027,118.878 261.175,121.991 259.587 C 122.657 259.248,123.985 258.742,124.942 258.464 C 126.473 258.019,126.896 257.706,128.452 255.865 C 129.538 254.582,130.695 253.562,131.446 253.227 C 133.097 252.492,134.582 251.063,135.240 249.576 C 135.539 248.901,136.292 247.937,136.912 247.434 C 139.717 245.158,140.462 244.438,140.656 243.817 C 140.939 242.910,142.535 241.102,143.505 240.591 C 144.558 240.036,145.983 238.689,145.983 238.249 C 145.983 237.660,148.090 235.152,149.520 234.038 C 150.261 233.460,151.435 232.138,152.128 231.100 C 152.821 230.062,154.080 228.631,154.925 227.919 C 155.770 227.208,156.846 226.068,157.316 225.385 C 157.787 224.703,159.428 222.844,160.963 221.254 C 162.499 219.664,164.267 217.684,164.892 216.854 C 165.517 216.024,167.004 214.372,168.196 213.182 C 169.388 211.991,170.942 210.226,171.649 209.258 C 172.356 208.290,173.049 207.498,173.189 207.498 C 173.683 207.498,176.605 204.380,177.195 203.223 C 177.523 202.579,178.223 201.728,178.749 201.332 C 180.405 200.086,182.020 198.434,182.512 197.483 C 182.773 196.978,183.481 196.168,184.085 195.681 C 186.609 193.650,187.638 192.581,188.306 191.296 C 188.803 190.340,189.616 189.524,191.049 188.542 C 192.510 187.540,193.241 186.801,193.635 185.922 C 194.282 184.482,196.068 182.402,196.658 182.402 C 197.386 182.402,199.161 180.594,200.146 178.848 C 200.696 177.873,201.502 176.936,202.044 176.641 C 203.703 175.737,204.694 174.759,205.659 173.073 C 206.177 172.168,207.091 171.039,207.691 170.564 C 209.585 169.065,210.867 167.684,211.479 166.483 C 211.806 165.843,212.868 164.628,213.840 163.782 C 214.813 162.936,216.084 161.443,216.665 160.464 C 217.912 158.364,219.344 156.575,221.909 153.912 C 222.940 152.842,224.165 151.413,224.632 150.735 C 225.099 150.057,226.328 148.767,227.363 147.867 C 228.398 146.967,229.701 145.521,230.257 144.654 C 232.636 140.943,238.206 140.275,248.226 142.501 C 249.761 142.842,250.449 142.868,251.126 142.610 C 251.614 142.425,252.912 142.083,254.010 141.852 C 257.131 141.193,259.195 140.109,262.308 137.496 C 263.892 136.166,265.835 134.706,266.627 134.252 C 267.446 133.782,268.671 132.640,269.471 131.601 C 270.244 130.596,271.731 129.162,272.775 128.413 C 273.820 127.664,275.019 126.480,275.440 125.782 C 276.123 124.649,279.404 121.806,280.029 121.806 C 280.163 121.806,280.694 121.151,281.209 120.352 C 281.724 119.552,282.872 118.347,283.759 117.674 C 284.647 117.001,285.789 115.985,286.298 115.416 C 288.059 113.447,290.631 110.939,291.452 110.390 C 291.905 110.086,292.837 109.079,293.522 108.152 C 294.207 107.224,295.509 105.992,296.414 105.413 C 297.319 104.834,298.307 104.001,298.609 103.561 C 299.633 102.072,301.571 100.031,302.356 99.616 C 303.389 99.069,304.761 97.706,305.891 96.105 C 306.396 95.390,307.579 94.279,308.519 93.637 C 309.460 92.996,310.482 92.085,310.790 91.614 C 311.743 90.159,313.982 87.917,314.855 87.544 C 315.311 87.349,316.167 86.560,316.756 85.792 C 319.094 82.741,320.023 82.110,322.967 81.571 C 325.987 81.019,326.476 81.024,327.478 81.616 M217.031 177.223 C 214.656 177.531,213.978 177.955,212.486 180.058 C 211.847 180.960,210.697 182.130,209.931 182.658 C 206.651 184.920,206.249 186.215,208.414 187.549 C 209.763 188.379,211.202 189.855,212.255 191.487 C 212.818 192.359,214.010 193.649,214.903 194.352 C 215.796 195.055,216.888 196.201,217.331 196.897 C 218.170 198.219,219.666 199.851,221.735 201.703 C 222.405 202.302,223.358 203.369,223.852 204.073 C 224.347 204.776,225.548 205.992,226.523 206.773 C 227.497 207.555,228.367 208.421,228.455 208.699 C 228.595 209.142,231.174 211.894,233.256 213.823 C 233.649 214.187,235.624 216.305,237.643 218.529 C 239.663 220.752,242.349 223.645,243.611 224.957 C 244.874 226.268,246.526 228.128,247.284 229.090 C 248.041 230.052,249.672 231.888,250.907 233.170 C 252.142 234.452,253.567 236.225,254.074 237.110 C 254.581 237.994,255.400 239.027,255.895 239.405 C 258.192 241.160,258.992 241.954,259.533 243.014 C 260.138 244.200,261.420 245.576,263.339 247.099 C 263.953 247.586,264.739 248.550,265.085 249.241 C 265.920 250.909,267.062 252.100,268.554 252.861 C 269.892 253.543,271.759 255.204,271.764 255.717 C 271.772 256.445,273.861 258.014,275.452 258.485 C 276.371 258.758,277.661 259.255,278.318 259.590 C 280.426 260.663,286.874 259.314,290.142 257.115 C 294.830 253.961,295.484 243.268,291.237 239.215 C 290.861 238.856,289.268 237.071,287.697 235.248 C 286.126 233.426,284.343 231.620,283.733 231.236 C 283.124 230.851,281.174 229.175,279.399 227.510 C 277.625 225.845,275.354 223.864,274.353 223.106 C 273.352 222.349,272.482 221.611,272.420 221.467 C 272.137 220.810,269.615 218.526,268.046 217.505 C 267.094 216.885,265.774 215.764,265.113 215.013 C 264.453 214.263,262.978 213.035,261.837 212.286 C 260.696 211.536,259.215 210.260,258.546 209.451 C 257.877 208.641,256.450 207.452,255.375 206.808 C 254.300 206.164,252.849 204.959,252.149 204.130 C 251.450 203.301,249.993 202.045,248.910 201.340 C 247.827 200.635,246.296 199.346,245.506 198.477 C 244.716 197.608,243.588 196.564,242.999 196.157 C 242.410 195.750,240.138 193.781,237.950 191.782 C 235.761 189.783,233.627 187.927,233.206 187.658 C 232.785 187.389,231.524 186.247,230.403 185.122 C 229.282 183.996,227.529 182.508,226.508 181.814 C 225.487 181.121,224.505 180.280,224.326 179.945 C 224.147 179.611,223.305 178.787,222.455 178.115 C 220.789 176.799,220.575 176.764,217.031 177.223 " stroke="none" fill="#ffffff" fill-rule="evenodd"></path></g></svg>