<svg id="svg" xmlns="http://www.w3.org/2000/svg" xmlns:xlink="http://www.w3.org/1999/xlink" width="400" height="400" viewBox="0, 0, 400,400"><g id="svgg"><path id="path0" d="M229.883 80.678 C 218.987 81.952,211.068 86.416,209.061 92.414 C 207.214 97.932,209.800 105.196,216.473 113.240 L 216.796 113.629 216.456 113.982 C 216.269 114.177,212.533 118.625,208.152 123.867 C 203.772 129.109,193.968 140.834,186.367 149.922 C 178.766 159.010,169.312 170.313,165.360 175.039 C 161.407 179.766,157.466 184.477,156.603 185.508 C 155.739 186.539,154.121 188.473,153.008 189.805 C 151.894 191.137,150.277 193.070,149.413 194.102 C 148.550 195.133,143.066 201.689,137.227 208.672 C 131.388 215.654,125.904 222.211,125.040 223.242 C 124.176 224.273,113.663 236.842,101.679 251.172 C 89.695 265.502,78.886 278.425,77.659 279.890 C 73.627 284.707,57.609 303.859,54.138 308.014 C 51.623 311.024,50.670 312.220,50.482 312.603 C 49.194 315.217,50.672 318.447,53.488 319.173 C 54.353 319.396,55.038 319.336,59.643 318.634 C 62.033 318.270,66.773 317.548,70.178 317.030 C 73.582 316.512,77.158 315.968,78.125 315.820 C 79.092 315.673,81.729 315.271,83.984 314.928 C 88.952 314.172,138.990 306.555,146.172 305.462 C 148.986 305.033,152.203 304.544,153.320 304.374 C 154.438 304.205,156.863 303.836,158.711 303.554 C 160.559 303.272,163.793 302.780,165.898 302.460 C 173.423 301.317,183.654 299.760,184.883 299.571 C 185.570 299.465,188.805 298.973,192.070 298.477 C 195.336 297.980,198.799 297.453,199.766 297.306 C 200.732 297.158,212.861 295.311,226.719 293.203 C 240.576 291.094,255.377 288.841,259.609 288.197 C 263.842 287.552,269.256 286.728,271.641 286.366 C 274.025 286.003,279.334 285.195,283.438 284.570 C 287.541 283.945,291.584 283.330,292.422 283.204 C 293.260 283.077,296.494 282.585,299.609 282.110 C 302.725 281.635,306.785 281.017,308.633 280.737 C 310.480 280.457,312.309 280.177,312.695 280.114 C 313.082 280.052,313.420 280.000,313.446 280.000 C 313.472 280.000,313.512 280.295,313.534 280.655 C 313.665 282.747,317.215 289.763,319.759 292.955 C 326.809 301.803,336.581 300.485,346.297 289.375 C 349.382 285.848,349.400 285.806,349.610 281.680 C 351.054 253.352,348.164 227.778,340.741 203.203 C 335.878 187.103,328.544 170.689,320.728 158.416 C 300.541 126.717,271.564 101.127,234.492 82.260 C 231.620 80.799,230.915 80.557,229.883 80.678 M230.411 90.674 C 252.798 101.886,274.134 117.546,290.270 134.609 C 301.434 146.416,311.529 160.080,317.770 171.836 C 334.715 203.751,342.373 240.637,340.306 280.391 L 340.219 282.070 339.934 282.422 C 338.923 283.667,336.896 285.423,335.488 286.273 C 330.675 289.179,326.387 287.144,323.383 280.528 L 322.960 279.595 323.042 278.880 C 324.258 268.226,323.677 252.998,321.519 238.984 C 317.816 214.937,308.504 189.526,296.799 171.523 C 282.198 149.068,262.457 129.596,240.117 115.613 C 234.806 112.288,229.010 109.123,224.414 107.037 C 222.852 106.328,222.936 106.397,222.041 105.078 C 217.097 97.789,219.354 92.360,228.125 90.442 C 229.128 90.223,229.327 90.178,229.357 90.165 C 229.368 90.160,229.843 90.389,230.411 90.674 M227.422 118.968 C 245.127 128.530,262.508 142.967,276.449 159.688 C 282.891 167.413,289.841 177.374,293.303 183.841 C 306.030 207.617,313.218 233.827,314.222 260.117 C 314.315 262.561,314.297 270.261,314.197 270.360 C 314.164 270.393,311.299 270.853,307.830 271.381 C 301.744 272.308,294.890 273.351,280.195 275.586 C 276.371 276.167,272.680 276.730,271.992 276.835 C 271.305 276.941,267.262 277.557,263.008 278.204 C 251.804 279.909,241.946 281.409,233.770 282.654 C 229.827 283.254,223.121 284.274,218.867 284.922 C 214.613 285.569,210.342 286.219,209.375 286.367 C 207.446 286.661,199.244 287.909,187.813 289.648 C 172.617 291.960,167.960 292.669,166.250 292.930 C 165.283 293.078,155.123 294.624,143.672 296.367 C 132.221 298.110,118.457 300.205,113.086 301.022 C 107.715 301.840,101.246 302.825,98.711 303.211 C 96.176 303.596,92.854 304.102,91.328 304.334 C 67.224 308.003,66.382 308.130,66.326 308.107 C 66.298 308.096,69.349 304.412,73.106 299.922 C 76.863 295.432,80.877 290.633,82.026 289.258 C 83.175 287.883,84.954 285.756,85.978 284.531 C 90.467 279.168,92.753 276.433,102.772 264.453 C 108.612 257.471,114.184 250.809,115.156 249.648 C 116.616 247.906,146.489 212.188,159.719 196.367 C 161.695 194.004,163.931 191.332,164.688 190.430 C 165.444 189.527,171.105 182.760,177.267 175.391 C 183.429 168.021,189.471 160.797,190.693 159.336 C 194.660 154.595,214.246 131.179,217.543 127.235 C 219.308 125.125,221.444 122.572,222.292 121.563 C 223.951 119.586,224.274 119.077,224.508 118.073 L 224.639 117.513 225.269 117.829 C 225.615 118.003,226.584 118.515,227.422 118.968 M212.695 156.648 C 194.950 158.482,187.107 180.043,199.529 192.842 C 211.484 205.158,232.455 198.935,235.818 182.074 C 238.607 168.092,226.868 155.183,212.695 156.648 M216.641 166.052 C 225.937 167.481,230.061 178.450,224.023 185.690 C 216.900 194.232,202.860 189.110,202.860 177.969 C 202.860 170.536,209.342 164.931,216.641 166.052 M257.358 171.023 C 250.825 172.019,244.316 177.707,244.465 182.288 C 244.643 187.746,253.879 187.490,260.441 181.847 C 265.380 177.599,265.767 172.485,261.249 171.168 C 260.578 170.973,258.255 170.886,257.358 171.023 M176.511 201.409 C 172.107 202.200,171.246 208.265,175.262 210.216 C 175.809 210.482,197.132 216.228,197.950 216.330 C 201.856 216.817,204.534 212.317,202.292 209.035 C 201.425 207.767,200.865 207.490,197.148 206.491 C 176.923 201.057,177.575 201.218,176.511 201.409 M252.852 203.103 C 247.481 203.850,244.375 209.773,246.796 214.652 C 249.739 220.584,258.230 220.584,261.173 214.652 C 264.031 208.893,259.220 202.217,252.852 203.103 M210.000 216.297 C 198.539 217.819,193.092 231.324,200.299 240.352 C 207.649 249.560,222.379 246.925,226.058 235.744 C 229.478 225.353,220.814 214.861,210.000 216.297 M171.680 222.083 C 165.451 223.414,163.118 231.135,167.589 235.615 C 172.668 240.704,181.328 237.114,181.328 229.920 C 181.328 224.909,176.564 221.039,171.680 222.083 M275.611 222.143 C 269.138 223.289,266.645 231.298,271.350 235.834 C 276.480 240.781,284.946 237.197,284.946 230.078 C 284.946 225.092,280.466 221.283,275.611 222.143 M213.692 225.839 C 216.678 226.871,218.190 230.019,217.116 232.963 C 215.448 237.534,209.097 237.855,206.959 233.477 C 204.827 229.112,209.109 224.254,213.692 225.839 M252.212 229.070 C 245.818 229.640,238.669 235.502,238.644 240.195 C 238.612 246.071,248.806 245.591,255.225 239.414 C 260.178 234.647,259.654 229.643,254.141 229.065 C 253.316 228.978,253.234 228.979,252.212 229.070 M138.524 237.465 C 132.182 238.840,129.851 246.450,134.370 251.023 C 139.396 256.109,148.080 252.514,148.069 245.352 C 148.062 240.313,143.348 236.418,138.524 237.465 M179.852 241.652 C 169.544 242.729,163.402 253.848,168.020 263.072 C 173.923 274.864,191.092 273.780,195.421 261.343 C 198.979 251.119,190.605 240.528,179.852 241.652 M182.930 251.172 C 187.445 252.588,188.298 258.666,184.328 261.140 C 180.378 263.602,175.354 260.462,175.869 255.854 C 176.253 252.426,179.680 250.153,182.930 251.172 M249.938 251.091 C 245.662 252.247,245.209 258.209,249.267 259.907 C 249.569 260.033,267.481 264.878,271.009 265.788 C 275.416 266.925,278.696 261.854,275.856 258.295 C 274.903 257.100,275.478 257.294,262.813 253.898 C 250.726 250.658,251.175 250.756,249.938 251.091 M222.578 257.180 C 216.762 258.463,214.302 265.374,217.998 270.048 C 221.648 274.664,229.003 273.824,231.519 268.505 C 234.365 262.490,229.046 255.753,222.578 257.180 M124.888 258.449 C 118.441 259.017,111.300 264.885,111.307 269.609 C 111.317 275.607,121.799 274.909,128.165 268.487 C 132.850 263.761,132.177 258.966,126.753 258.439 C 125.890 258.355,125.962 258.355,124.888 258.449 M151.343 264.454 C 141.026 265.534,136.491 278.080,143.753 285.448 C 151.526 293.334,164.877 287.842,164.877 276.758 C 164.877 269.415,158.585 263.695,151.343 264.454 M203.672 272.195 C 196.909 272.943,190.005 279.775,192.211 283.535 C 194.422 287.301,203.630 284.831,207.697 279.380 C 210.834 275.177,208.843 271.623,203.672 272.195 M116.641 282.551 C 108.481 283.614,100.884 291.677,104.013 295.954 C 107.284 300.426,119.107 296.289,122.529 289.475 C 124.695 285.162,121.893 281.867,116.641 282.551 " stroke="none" fill="#000000" fill-rule="evenodd"></path></g></svg>