<svg id="svg" version="1.1" xmlns="http://www.w3.org/2000/svg" xmlns:xlink="http://www.w3.org/1999/xlink" width="400" height="400" viewBox="0, 0, 400,400"><g id="svgg"><path id="path0" d="M227.167 81.078 C 207.543 84.558,203.091 96.388,215.522 112.023 C 216.152 112.815,216.667 113.516,216.667 113.582 C 216.667 113.685,211.095 120.396,202.344 130.833 C 200.923 132.529,197.502 136.617,194.744 139.917 C 191.985 143.217,188.720 147.120,187.489 148.592 C 186.257 150.063,183.341 153.550,181.007 156.342 C 178.673 159.133,175.258 163.217,173.417 165.417 C 171.576 167.617,168.314 171.517,166.168 174.083 C 164.022 176.650,161.509 179.650,160.583 180.750 C 159.657 181.850,156.269 185.900,153.053 189.750 C 149.838 193.600,146.172 197.987,144.907 199.500 C 142.367 202.535,133.499 213.139,128.181 219.500 C 126.304 221.746,123.448 225.158,121.835 227.083 C 120.222 229.008,116.805 233.091,114.243 236.157 C 111.680 239.222,108.576 242.935,107.345 244.407 C 106.113 245.879,102.441 250.271,99.185 254.167 C 95.928 258.063,92.507 262.150,91.583 263.250 C 90.659 264.350,87.051 268.662,83.565 272.833 C 80.079 277.004,76.220 281.621,74.989 283.093 C 73.757 284.565,70.653 288.278,68.090 291.343 C 65.527 294.409,61.735 298.942,59.663 301.417 C 49.270 313.836,50.091 312.699,50.091 314.667 C 50.091 317.052,51.725 318.953,54.048 319.271 C 54.804 319.375,54.925 319.358,67.667 317.417 C 72.112 316.740,79.500 315.615,84.083 314.918 C 88.667 314.220,96.054 313.096,100.500 312.418 C 111.244 310.780,123.226 308.957,133.417 307.409 C 138.000 306.712,143.925 305.807,146.583 305.398 C 149.242 304.988,153.892 304.284,156.917 303.832 C 159.942 303.381,165.154 302.592,168.500 302.079 C 171.846 301.565,178.258 300.586,182.750 299.902 C 187.242 299.219,194.592 298.099,199.083 297.415 C 210.227 295.718,221.958 293.933,231.917 292.418 C 236.500 291.720,243.887 290.596,248.333 289.918 C 252.779 289.240,260.167 288.116,264.750 287.419 C 269.333 286.722,276.233 285.669,280.083 285.078 C 283.933 284.487,288.583 283.783,290.417 283.512 C 292.250 283.242,296.188 282.647,299.167 282.189 C 302.146 281.732,306.383 281.088,308.583 280.759 C 310.783 280.429,312.779 280.120,313.019 280.071 C 313.432 279.988,313.461 280.026,313.565 280.817 C 313.938 283.624,318.090 291.246,320.888 294.260 C 327.996 301.916,337.754 299.700,347.224 288.277 C 349.560 285.459,349.479 285.821,349.826 276.750 C 351.572 231.160,340.020 186.823,317.866 154.083 C 297.665 124.231,269.705 100.129,234.659 82.357 C 230.988 80.495,230.718 80.449,227.167 81.078 M232.736 91.898 C 266.086 109.147,293.648 133.602,312.120 162.333 C 314.966 166.760,315.434 167.534,316.967 170.348 C 333.829 201.305,341.874 237.601,340.491 276.480 C 340.280 282.410,340.357 282.122,338.518 283.872 C 332.572 289.531,327.266 288.585,323.740 281.238 L 322.991 279.678 323.254 276.797 C 326.347 242.946,314.924 198.690,295.624 169.750 C 279.134 145.025,256.486 124.162,231.241 110.446 C 228.778 109.108,223.455 106.500,223.186 106.500 C 222.977 106.500,222.044 105.198,221.214 103.750 C 218.352 98.753,218.913 95.124,222.958 92.484 C 224.201 91.672,227.906 90.314,229.236 90.182 C 229.320 90.173,230.895 90.946,232.736 91.898 M230.583 120.753 C 257.387 136.149,282.626 162.383,295.600 188.333 C 307.861 212.855,314.340 239.781,314.330 266.167 C 314.328 270.902,314.638 270.371,311.613 270.820 C 310.222 271.026,306.421 271.604,303.167 272.104 C 299.912 272.603,294.775 273.381,291.750 273.833 C 288.725 274.284,284.075 274.988,281.417 275.398 C 278.758 275.807,272.833 276.712,268.250 277.409 C 258.167 278.941,246.209 280.761,235.333 282.418 C 230.887 283.096,223.500 284.220,218.917 284.918 C 214.333 285.615,206.946 286.740,202.500 287.417 C 198.054 288.095,190.667 289.220,186.083 289.917 C 181.500 290.615,174.112 291.739,169.667 292.416 C 165.221 293.093,157.571 294.258,152.667 295.004 C 147.762 295.751,141.575 296.695,138.917 297.103 C 136.258 297.511,131.571 298.219,128.500 298.676 C 125.429 299.134,121.492 299.734,119.750 300.011 C 118.008 300.287,114.108 300.883,111.083 301.334 C 108.058 301.785,103.408 302.488,100.750 302.897 C 98.092 303.306,92.129 304.216,87.500 304.920 C 82.871 305.624,76.234 306.636,72.750 307.170 C 69.267 307.703,66.398 308.120,66.374 308.096 C 66.313 308.036,66.694 307.572,72.427 300.730 C 81.157 290.309,81.910 289.410,88.593 281.417 C 92.195 277.108,97.341 270.954,100.029 267.741 C 102.717 264.527,107.202 259.165,109.995 255.824 C 112.787 252.483,116.236 248.362,117.658 246.667 C 119.080 244.971,122.944 240.352,126.246 236.402 C 133.214 228.067,141.955 217.615,145.260 213.667 C 146.526 212.154,149.819 208.217,152.578 204.917 C 155.337 201.617,158.757 197.529,160.177 195.833 C 161.598 194.137,165.046 190.016,167.839 186.675 C 170.632 183.334,173.924 179.396,175.155 177.925 C 176.387 176.454,180.246 171.838,183.732 167.667 C 187.218 163.496,191.233 158.696,192.655 157.000 C 194.077 155.304,197.903 150.729,201.159 146.833 C 204.414 142.938,207.706 139.000,208.475 138.083 C 209.244 137.167,212.130 133.717,214.889 130.417 C 217.649 127.117,220.758 123.404,221.798 122.167 C 223.644 119.971,224.500 118.662,224.500 118.033 C 224.500 117.332,225.074 117.589,230.583 120.753 M212.250 156.677 C 196.030 158.883,187.987 177.598,197.655 190.638 C 208.024 204.623,229.990 200.953,235.232 184.360 C 239.859 169.711,227.336 154.626,212.250 156.677 M217.872 166.322 C 229.188 169.216,229.884 185.400,218.859 189.252 C 208.702 192.801,199.411 182.319,204.084 172.583 C 206.467 167.620,212.404 164.924,217.872 166.322 M256.248 171.245 C 249.791 172.651,243.625 178.847,244.522 183.029 C 245.596 188.036,255.454 186.885,261.264 181.075 C 267.138 175.202,264.232 169.506,256.248 171.245 M175.769 201.607 C 173.343 202.351,171.927 205.721,173.080 208.008 C 173.898 209.631,174.935 210.267,178.112 211.093 C 179.380 211.422,182.179 212.169,184.333 212.751 C 200.404 217.096,199.502 216.971,201.592 215.137 C 204.546 212.543,203.181 208.133,199.075 207.010 C 198.438 206.835,195.329 206.002,192.167 205.158 C 189.004 204.314,184.511 203.108,182.181 202.478 C 177.758 201.283,177.110 201.195,175.769 201.607 M252.667 203.164 C 246.175 204.392,243.753 211.925,248.312 216.715 C 252.542 221.160,260.178 219.092,261.745 213.076 C 263.188 207.534,258.223 202.113,252.667 203.164 M209.250 216.414 C 198.647 218.388,193.548 230.847,199.757 239.610 C 207.921 251.131,225.890 245.959,226.773 231.833 C 227.363 222.397,218.588 214.675,209.250 216.414 M172.089 222.019 C 168.235 222.580,165.342 226.010,165.335 230.024 C 165.324 237.261,174.181 240.730,179.130 235.427 C 184.321 229.864,179.625 220.922,172.089 222.019 M275.333 222.171 C 269.195 223.450,266.830 231.186,271.206 235.669 C 277.530 242.146,288.021 234.776,284.155 226.572 C 282.651 223.380,278.786 221.452,275.333 222.171 M214.106 226.023 C 217.689 227.364,218.571 232.333,215.717 235.106 C 213.783 236.986,210.367 237.046,208.353 235.236 C 203.637 230.996,208.138 223.790,214.106 226.023 M251.194 229.177 C 243.622 230.524,236.546 238.273,239.210 242.302 C 242.581 247.401,256.083 242.105,258.360 234.790 C 259.584 230.857,256.283 228.271,251.194 229.177 M138.006 237.600 C 133.845 238.718,131.193 243.165,132.255 247.243 C 134.167 254.582,144.070 255.588,147.322 248.774 C 150.227 242.686,144.526 235.848,138.006 237.600 M179.521 241.677 C 169.671 242.891,163.655 253.668,167.832 262.615 C 173.264 274.252,189.549 274.235,194.930 262.588 C 199.726 252.209,190.929 240.271,179.521 241.677 M183.699 251.457 C 186.474 252.696,187.668 256.389,186.181 259.133 C 183.605 263.884,176.394 262.357,175.890 256.953 C 175.500 252.778,179.830 249.730,183.699 251.457 M249.398 251.260 C 246.407 252.364,245.491 256.478,247.718 258.807 C 248.510 259.635,249.466 260.046,252.417 260.825 C 253.883 261.212,256.996 262.042,259.333 262.669 C 261.671 263.297,265.421 264.303,267.667 264.906 C 272.885 266.306,273.583 266.292,275.295 264.753 C 278.302 262.049,276.970 257.628,272.833 256.585 C 271.460 256.239,263.883 254.202,257.500 252.463 C 252.139 251.003,250.679 250.786,249.398 251.260 M222.431 257.187 C 217.598 258.320,214.875 263.964,217.007 268.432 C 220.286 275.302,230.156 274.288,232.085 266.883 C 233.546 261.274,228.143 255.847,222.431 257.187 M124.500 258.522 C 118.246 259.182,111.333 265.008,111.333 269.619 C 111.333 276.014,123.530 274.497,129.169 267.401 C 133.364 262.122,131.104 257.825,124.500 258.522 M150.812 264.502 C 141.272 266.007,136.929 277.342,143.075 284.696 C 150.431 293.498,164.915 288.277,164.888 276.833 C 164.870 269.290,158.093 263.353,150.812 264.502 M202.044 272.501 C 193.841 274.651,188.580 282.927,194.103 284.993 C 199.923 287.171,210.694 279.549,209.009 274.445 C 208.362 272.484,205.334 271.639,202.044 272.501 M115.500 282.759 C 106.245 284.743,99.673 294.270,105.560 297.168 C 110.397 299.549,119.877 295.097,122.668 289.133 C 124.770 284.641,121.263 281.523,115.500 282.759 " stroke="none" fill="#040404" fill-rule="evenodd"></path><path id="path1" d="M0.000 200.000 L 0.000 400.000 200.000 400.000 L 400.000 400.000 400.000 200.000 L 400.000 0.000 200.000 0.000 L 0.000 0.000 0.000 200.000 M234.659 82.357 C 269.705 100.129,297.665 124.231,317.866 154.083 C 340.020 186.823,351.572 231.160,349.826 276.750 C 349.479 285.821,349.560 285.459,347.224 288.277 C 337.754 299.700,327.996 301.916,320.888 294.260 C 318.090 291.246,313.938 283.624,313.565 280.817 C 313.461 280.026,313.432 279.988,313.019 280.071 C 312.779 280.120,310.783 280.429,308.583 280.759 C 306.383 281.088,302.146 281.732,299.167 282.189 C 296.188 282.647,292.250 283.242,290.417 283.512 C 288.583 283.783,283.933 284.487,280.083 285.078 C 276.233 285.669,269.333 286.722,264.750 287.419 C 260.167 288.116,252.779 289.240,248.333 289.918 C 243.887 290.596,236.500 291.720,231.917 292.418 C 221.958 293.933,210.227 295.718,199.083 297.415 C 194.592 298.099,187.242 299.219,182.750 299.902 C 178.258 300.586,171.846 301.565,168.500 302.079 C 165.154 302.592,159.942 303.381,156.917 303.832 C 153.892 304.284,149.242 304.988,146.583 305.398 C 143.925 305.807,138.000 306.712,133.417 307.409 C 123.226 308.957,111.244 310.780,100.500 312.418 C 96.054 313.096,88.667 314.220,84.083 314.918 C 79.500 315.615,72.112 316.740,67.667 317.417 C 54.925 319.358,54.804 319.375,54.048 319.271 C 51.725 318.953,50.091 317.052,50.091 314.667 C 50.091 312.986,50.325 312.578,53.388 308.917 C 54.768 307.267,57.592 303.892,59.663 301.417 C 61.735 298.942,65.527 294.409,68.090 291.343 C 70.653 288.278,73.757 284.565,74.989 283.093 C 76.220 281.621,80.079 277.004,83.565 272.833 C 87.051 268.662,90.659 264.350,91.583 263.250 C 92.507 262.150,95.928 258.063,99.185 254.167 C 102.441 250.271,106.113 245.879,107.345 244.407 C 108.576 242.935,111.680 239.222,114.243 236.157 C 116.805 233.091,120.222 229.008,121.835 227.083 C 123.448 225.158,126.304 221.746,128.181 219.500 C 133.499 213.139,142.367 202.535,144.907 199.500 C 146.172 197.987,149.838 193.600,153.053 189.750 C 156.269 185.900,159.657 181.850,160.583 180.750 C 161.509 179.650,164.022 176.650,166.168 174.083 C 168.314 171.517,171.576 167.617,173.417 165.417 C 175.258 163.217,178.673 159.133,181.007 156.342 C 183.341 153.550,186.257 150.063,187.489 148.592 C 188.720 147.120,191.985 143.217,194.744 139.917 C 197.502 136.617,200.923 132.529,202.344 130.833 C 211.095 120.396,216.667 113.685,216.667 113.582 C 216.667 113.516,216.152 112.815,215.522 112.023 C 204.056 97.601,206.720 86.742,222.873 82.069 C 229.109 80.265,230.606 80.301,234.659 82.357 M228.167 90.439 C 219.660 92.683,217.378 97.052,221.214 103.750 C 222.044 105.198,222.977 106.500,223.186 106.500 C 223.455 106.500,228.778 109.108,231.241 110.446 C 256.486 124.162,279.134 145.025,295.624 169.750 C 314.924 198.690,326.347 242.946,323.254 276.797 L 322.991 279.678 323.740 281.238 C 327.266 288.585,332.572 289.531,338.518 283.872 C 340.357 282.122,340.280 282.410,340.491 276.480 C 341.874 237.601,333.829 201.305,316.967 170.348 C 315.434 167.534,314.966 166.760,312.120 162.333 C 295.870 137.057,272.551 115.032,244.417 98.385 C 239.036 95.201,229.668 90.139,229.236 90.182 C 229.152 90.190,228.671 90.306,228.167 90.439 M224.605 117.617 C 224.547 117.675,224.500 117.862,224.500 118.033 C 224.500 118.662,223.644 119.971,221.798 122.167 C 220.758 123.404,217.649 127.117,214.889 130.417 C 212.130 133.717,209.244 137.167,208.475 138.083 C 207.706 139.000,204.414 142.938,201.159 146.833 C 197.903 150.729,194.077 155.304,192.655 157.000 C 191.233 158.696,187.218 163.496,183.732 167.667 C 180.246 171.838,176.387 176.454,175.155 177.925 C 173.924 179.396,170.632 183.334,167.839 186.675 C 165.046 190.016,161.598 194.137,160.177 195.833 C 158.757 197.529,155.337 201.617,152.578 204.917 C 149.819 208.217,146.526 212.154,145.260 213.667 C 141.955 217.615,133.214 228.067,126.246 236.402 C 122.944 240.352,119.080 244.971,117.658 246.667 C 116.236 248.362,112.787 252.483,109.995 255.824 C 107.202 259.165,102.717 264.527,100.029 267.741 C 97.341 270.954,92.195 277.108,88.593 281.417 C 81.910 289.410,81.157 290.309,72.427 300.730 C 66.694 307.572,66.313 308.036,66.374 308.096 C 66.398 308.120,69.267 307.703,72.750 307.170 C 76.234 306.636,82.871 305.624,87.500 304.920 C 92.129 304.216,98.092 303.306,100.750 302.897 C 103.408 302.488,108.058 301.785,111.083 301.334 C 114.108 300.883,118.008 300.287,119.750 300.011 C 121.492 299.734,125.429 299.134,128.500 298.676 C 131.571 298.219,136.258 297.511,138.917 297.103 C 141.575 296.695,147.762 295.751,152.667 295.004 C 157.571 294.258,165.221 293.093,169.667 292.416 C 174.112 291.739,181.500 290.615,186.083 289.917 C 190.667 289.220,198.054 288.095,202.500 287.417 C 206.946 286.740,214.333 285.615,218.917 284.918 C 223.500 284.220,230.887 283.096,235.333 282.418 C 246.209 280.761,258.167 278.941,268.250 277.409 C 272.833 276.712,278.758 275.807,281.417 275.398 C 284.075 274.988,288.725 274.284,291.750 273.833 C 294.775 273.381,299.912 272.603,303.167 272.104 C 306.421 271.604,310.222 271.026,311.613 270.820 C 314.638 270.371,314.328 270.902,314.330 266.167 C 314.340 239.781,307.861 212.855,295.600 188.333 C 283.563 164.257,260.602 139.501,235.870 123.934 C 231.319 121.069,224.805 117.417,224.605 117.617 M218.764 156.909 C 235.443 160.122,242.016 180.835,230.167 192.841 C 218.148 205.018,197.518 199.041,193.898 182.333 C 190.729 167.708,204.061 154.077,218.764 156.909 M211.729 166.330 C 203.064 168.602,199.945 179.428,206.038 186.083 C 211.554 192.109,221.764 190.793,225.439 183.583 C 230.215 174.212,221.844 163.678,211.729 166.330 M261.442 171.248 C 266.181 172.656,264.982 178.714,259.140 182.882 C 250.863 188.789,241.668 186.378,245.255 179.242 C 247.946 173.887,256.352 169.737,261.442 171.248 M182.181 202.478 C 184.511 203.108,189.004 204.314,192.167 205.158 C 195.329 206.002,198.438 206.835,199.075 207.010 C 204.613 208.524,204.417 215.895,198.828 216.295 C 197.661 216.379,198.593 216.607,184.333 212.751 C 182.179 212.169,179.380 211.422,178.112 211.093 C 175.470 210.406,174.822 210.113,173.977 209.222 C 171.180 206.276,173.209 201.414,177.264 201.345 C 177.639 201.339,179.851 201.848,182.181 202.478 M256.561 203.492 C 262.302 205.468,263.876 212.838,259.435 216.950 C 254.295 221.709,246.000 218.087,246.000 211.083 C 246.000 205.574,251.377 201.709,256.561 203.492 M214.589 216.422 C 224.141 218.088,229.613 228.860,225.328 237.563 C 219.734 248.927,203.283 248.600,198.332 237.027 C 193.626 226.026,202.822 214.370,214.589 216.422 M175.417 222.198 C 178.699 223.014,181.333 226.425,181.333 229.860 C 181.333 237.777,170.908 241.041,166.652 234.457 C 162.624 228.225,168.214 220.407,175.417 222.198 M279.529 222.480 C 285.173 224.431,286.829 231.598,282.595 235.750 C 278.616 239.651,272.173 238.565,269.741 233.584 C 266.639 227.231,272.859 220.173,279.529 222.480 M210.514 225.756 C 207.709 226.538,205.935 229.349,206.504 232.108 C 207.580 237.325,214.610 238.202,216.923 233.408 C 218.929 229.250,214.963 224.514,210.514 225.756 M255.911 229.429 C 262.175 231.649,256.790 241.099,247.750 243.752 C 239.935 246.045,236.014 241.377,240.725 235.388 C 244.294 230.851,251.711 227.941,255.911 229.429 M142.078 237.589 C 147.896 239.104,150.040 246.298,145.994 250.725 C 141.625 255.505,133.897 253.546,132.255 247.243 C 130.764 241.516,136.292 236.082,142.078 237.589 M184.813 242.011 C 193.808 244.110,198.788 254.239,194.930 262.588 C 189.549 274.235,173.264 274.252,167.832 262.615 C 162.647 251.509,172.787 239.206,184.813 242.011 M179.559 251.229 C 173.733 253.133,175.192 261.922,181.333 261.915 C 188.500 261.907,188.744 251.337,181.583 251.055 C 180.770 251.023,179.980 251.091,179.559 251.229 M257.500 252.463 C 263.883 254.202,271.460 256.239,272.833 256.585 C 276.970 257.628,278.302 262.049,275.295 264.753 C 273.583 266.292,272.885 266.306,267.667 264.906 C 265.421 264.303,261.671 263.297,259.333 262.669 C 256.996 262.042,253.883 261.212,252.417 260.825 C 249.466 260.046,248.510 259.635,247.718 258.807 C 245.946 256.954,246.098 253.750,248.037 252.090 C 249.755 250.620,250.897 250.665,257.500 252.463 M226.244 257.255 C 230.480 258.359,233.156 262.770,232.085 266.883 C 230.426 273.254,222.747 275.214,218.340 270.392 C 213.054 264.609,218.666 255.282,226.244 257.255 M128.260 258.760 C 132.811 260.006,132.087 265.493,126.812 269.732 C 120.168 275.072,111.333 275.007,111.333 269.619 C 111.333 263.624,121.709 256.968,128.260 258.760 M155.500 264.761 C 164.207 266.750,167.810 277.542,162.126 284.608 C 156.555 291.532,145.371 290.254,141.500 282.250 C 136.921 272.783,145.222 262.413,155.500 264.761 M206.879 272.500 C 212.485 274.598,207.184 282.886,198.878 285.010 C 193.688 286.337,190.419 283.614,192.430 279.638 C 194.914 274.730,202.639 270.914,206.879 272.500 M119.917 282.726 C 126.774 284.553,122.429 293.714,113.164 296.965 C 106.185 299.414,101.425 296.263,104.057 290.937 C 106.650 285.690,114.938 281.399,119.917 282.726 " stroke="none" fill="#ffffff" fill-rule="evenodd"></path></g></svg>