<svg id="svg" version="1.1" xmlns="http://www.w3.org/2000/svg" xmlns:xlink="http://www.w3.org/1999/xlink" width="400" height="400" viewBox="0, 0, 400,400"><g id="svgg"><path id="path0" d="M184.583 128.150 C 139.255 131.776,107.853 172.882,118.474 214.688 C 123.395 234.057,137.168 250.806,155.833 260.118 C 202.764 283.531,259.407 255.417,265.413 205.729 C 265.653 203.748,266.025 197.040,265.904 196.892 C 265.864 196.844,264.356 197.114,262.552 197.491 C 248.432 200.448,236.498 191.245,237.430 178.118 C 237.581 175.987,237.835 176.214,234.868 175.831 C 221.283 174.075,213.343 159.791,218.742 146.821 C 219.846 144.171,221.290 142.200,224.321 139.207 C 225.865 137.682,227.095 136.403,227.054 136.365 C 226.703 136.041,218.971 132.928,216.250 132.016 C 206.229 128.656,195.154 127.304,184.583 128.150 M199.792 135.090 C 205.131 135.784,210.180 136.933,214.219 138.374 C 215.641 138.881,215.607 138.716,214.616 140.290 C 205.102 155.404,212.349 176.200,228.933 181.369 L 230.772 181.942 231.015 183.536 C 232.817 195.301,243.309 204.247,255.885 204.738 C 257.545 204.803,258.750 204.936,258.750 205.054 C 258.750 211.578,253.862 224.522,248.386 232.500 C 218.428 276.145,147.392 269.438,127.620 221.098 C 111.277 181.141,139.912 138.799,186.042 134.713 C 188.233 134.519,197.313 134.768,199.792 135.090 M189.736 144.800 C 183.962 145.770,181.586 152.990,185.605 157.350 C 188.502 160.493,193.783 160.441,196.571 157.241 C 201.263 151.855,196.739 143.622,189.736 144.800 M177.297 172.197 C 170.650 174.055,169.613 183.042,175.690 186.117 C 180.293 188.446,185.631 185.680,186.521 180.505 C 187.398 175.406,182.286 170.802,177.297 172.197 M146.426 173.820 C 139.261 176.493,139.564 186.393,146.867 188.247 C 154.257 190.122,159.365 180.856,153.828 175.619 C 151.894 173.790,148.632 172.997,146.426 173.820 M205.417 179.361 C 200.057 180.998,198.331 187.988,202.324 191.888 C 207.132 196.584,215.100 193.190,215.037 186.473 C 214.991 181.626,210.024 177.955,205.417 179.361 M172.655 198.755 C 168.603 199.778,166.040 204.104,167.174 208.006 C 169.621 216.422,181.771 214.787,181.771 206.042 C 181.771 201.163,177.292 197.583,172.655 198.755 M142.706 206.662 C 136.561 207.733,134.339 215.585,139.019 219.683 C 143.651 223.739,150.969 220.749,151.407 214.622 C 151.752 209.808,147.415 205.842,142.706 206.662 M195.625 210.706 C 186.381 212.762,188.915 226.933,198.255 225.412 C 206.612 224.052,206.763 212.182,198.443 210.644 C 197.013 210.379,197.106 210.377,195.625 210.706 M219.041 222.784 C 212.815 224.819,212.169 233.894,218.053 236.660 C 225.619 240.216,232.461 230.896,226.759 224.801 C 224.910 222.823,221.580 221.953,219.041 222.784 M177.372 231.949 C 171.760 233.371,169.795 240.165,173.754 244.459 C 177.085 248.073,183.664 247.086,185.811 242.650 C 188.582 236.927,183.443 230.411,177.372 231.949 " stroke="none" fill="#000000" fill-rule="evenodd"></path></g></svg>