<svg id="svg" xmlns="http://www.w3.org/2000/svg" xmlns:xlink="http://www.w3.org/1999/xlink" width="400" height="400" viewBox="0, 0, 400,400"><g id="svgg"><path id="path0" d="M196.513 118.548 C 186.417 119.824,177.992 127.110,175.621 136.615 L 175.401 137.500 158.782 137.500 C 139.799 137.500,140.798 137.410,138.443 139.332 C 135.732 141.545,135.208 143.254,135.208 149.896 C 135.208 157.906,136.817 160.885,141.797 162.105 C 142.356 162.241,142.836 162.371,142.865 162.392 C 142.911 162.426,144.681 183.435,146.991 211.354 C 147.389 216.167,147.805 221.182,147.915 222.500 C 151.828 269.439,151.648 267.474,152.198 269.114 C 153.509 273.019,156.530 276.109,160.575 277.683 L 161.979 278.229 199.896 278.229 L 237.813 278.229 239.193 277.752 C 243.503 276.262,246.904 272.662,248.025 268.402 C 248.354 267.149,248.443 266.178,250.720 238.854 C 251.464 229.917,252.730 214.729,253.532 205.104 C 254.335 195.479,255.178 185.307,255.406 182.500 C 256.174 173.049,257.090 162.424,257.139 162.388 C 257.166 162.369,257.644 162.241,258.203 162.105 C 263.183 160.886,264.792 157.905,264.792 149.900 C 264.792 143.222,264.171 141.275,261.366 139.157 C 259.089 137.438,259.840 137.500,241.135 137.500 L 224.599 137.500 224.379 136.615 C 221.415 124.730,209.373 116.922,196.513 118.548 M205.835 126.842 C 209.018 127.879,211.750 129.719,213.710 132.145 C 214.879 133.592,216.744 136.998,216.544 137.322 C 216.483 137.420,209.039 137.500,200.000 137.500 C 190.961 137.500,183.517 137.420,183.456 137.322 C 183.256 136.998,185.121 133.592,186.290 132.145 C 190.585 126.829,198.886 124.577,205.835 126.842 M256.833 145.250 C 257.012 145.429,257.083 146.755,257.083 149.896 C 257.083 153.037,257.012 154.363,256.833 154.542 C 256.469 154.906,143.531 154.906,143.167 154.542 C 142.988 154.363,142.917 153.037,142.917 149.896 C 142.917 146.755,142.988 145.429,143.167 145.250 C 143.531 144.886,256.469 144.886,256.833 145.250 M249.375 162.830 C 249.375 163.127,248.954 168.400,248.439 174.549 C 247.924 180.698,246.001 203.776,244.165 225.833 C 241.872 253.381,240.727 266.242,240.506 266.911 C 240.068 268.241,238.796 269.626,237.456 270.231 L 236.354 270.729 200.000 270.729 L 163.646 270.729 162.544 270.231 C 161.205 269.626,159.932 268.241,159.493 266.911 C 159.272 266.241,158.132 253.445,155.834 225.833 C 153.999 203.776,152.076 180.698,151.561 174.549 C 151.046 168.400,150.625 163.127,150.625 162.830 L 150.625 162.292 200.000 162.292 L 249.375 162.292 249.375 162.830 M198.854 170.138 C 198.117 170.338,197.091 171.251,196.665 172.087 C 196.014 173.363,196.011 256.007,196.662 257.282 C 197.438 258.803,199.316 259.645,200.885 259.176 C 202.105 258.811,202.852 258.234,203.338 257.282 C 203.989 256.007,203.986 173.363,203.335 172.087 C 202.544 170.537,200.561 169.674,198.854 170.138 M166.042 177.108 C 165.376 177.373,164.422 178.277,164.044 179.000 C 163.584 179.881,163.643 180.856,165.525 203.413 C 169.995 256.979,169.276 250.640,171.013 251.810 C 173.017 253.159,175.729 252.316,176.584 250.078 L 176.963 249.083 174.087 214.490 C 171.179 179.522,171.128 179.037,170.252 178.051 C 169.389 177.079,167.295 176.610,166.042 177.108 M230.938 177.267 C 229.957 177.717,229.501 178.188,229.091 179.174 C 228.883 179.672,227.898 190.623,225.912 214.513 L 223.033 249.130 223.448 250.131 C 224.649 253.031,228.782 253.213,230.202 250.430 C 230.609 249.631,236.250 184.721,236.250 180.832 C 236.250 177.809,233.612 176.039,230.938 177.267 " stroke="none" fill="#000000" fill-rule="evenodd"></path></g></svg>